Primae-Asc Light.ufo
<glyph name="exclam" format="2">
	<unicode hex="0021"/>
	<advance width="654"/>
	<outline>
		<contour>
			<point x="364" y="396" type="curve" smooth="yes"/>
			<point x="389" y="396"/>
			<point x="407" y="409"/>
			<point x="409" y="441" type="curve" smooth="yes"/>
			<point x="470" y="1329" type="line" smooth="yes"/>
			<point x="471" y="1344"/>
			<point x="471" y="1349"/>
			<point x="471" y="1354" type="curve" smooth="yes"/>
			<point x="471" y="1388"/>
			<point x="458" y="1400"/>
			<point x="429" y="1400" type="curve" smooth="yes"/>
			<point x="405" y="1400"/>
			<point x="387" y="1391"/>
			<point x="384" y="1346" type="curve" smooth="yes"/>
			<point x="325" y="443" type="line" smooth="yes"/>
			<point x="325" y="441"/>
			<point x="325" y="439"/>
			<point x="325" y="437" type="curve" smooth="yes"/>
			<point x="325" y="409"/>
			<point x="338" y="396"/>
		</contour>
		<contour>
			<point x="341" y="-12" type="curve" smooth="yes"/>
			<point x="391" y="-12"/>
			<point x="439" y="35"/>
			<point x="439" y="91" type="curve" smooth="yes"/>
			<point x="439" y="140"/>
			<point x="403" y="177"/>
			<point x="352" y="177" type="curve" smooth="yes"/>
			<point x="303" y="177"/>
			<point x="260" y="134"/>
			<point x="260" y="78" type="curve" smooth="yes"/>
			<point x="260" y="22"/>
			<point x="296" y="-12"/>
		</contour>
	</outline>
</glyph>
<glyph name="parenright" format="2">
	<unicode hex="0029"/>
	<advance width="771"/>
	<outline>
		<contour>
			<point x="102" y="-299" type="curve" smooth="yes"/>
			<point x="123" y="-299"/>
			<point x="147" y="-279"/>
			<point x="187" y="-234" type="curve" smooth="yes"/>
			<point x="372" y="-25"/>
			<point x="551" y="332"/>
			<point x="551" y="771" type="curve" smooth="yes"/>
			<point x="551" y="1066"/>
			<point x="465" y="1331"/>
			<point x="314" y="1550" type="curve" smooth="yes"/>
			<point x="270" y="1614"/>
			<point x="251" y="1631"/>
			<point x="227" y="1631" type="curve" smooth="yes"/>
			<point x="202" y="1631"/>
			<point x="186" y="1611"/>
			<point x="186" y="1594" type="curve" smooth="yes"/>
			<point x="186" y="1575"/>
			<point x="205" y="1552"/>
			<point x="233" y="1511" type="curve" smooth="yes"/>
			<point x="398" y="1270"/>
			<point x="465" y="1013"/>
			<point x="465" y="748" type="curve" smooth="yes"/>
			<point x="465" y="344"/>
			<point x="312" y="35"/>
			<point x="130" y="-197" type="curve" smooth="yes"/>
			<point x="96" y="-240"/>
			<point x="80" y="-258"/>
			<point x="80" y="-276" type="curve" smooth="yes"/>
			<point x="80" y="-289"/>
			<point x="88" y="-299"/>
		</contour>
	</outline>
</glyph>
<glyph name="hyphen" format="2">
	<unicode hex="002D"/>
	<advance width="924"/>
	<outline>
		<contour>
			<point x="190" y="630" type="curve" smooth="yes"/>
			<point x="729" y="630" type="line" smooth="yes"/>
			<point x="755" y="630"/>
			<point x="774" y="641"/>
			<point x="774" y="671" type="curve" smooth="yes"/>
			<point x="774" y="694"/>
			<point x="760" y="705"/>
			<point x="734" y="705" type="curve" smooth="yes"/>
			<point x="195" y="705" type="line" smooth="yes"/>
			<point x="169" y="705"/>
			<point x="150" y="694"/>
			<point x="150" y="665" type="curve" smooth="yes"/>
			<point x="150" y="641"/>
			<point x="164" y="630"/>
		</contour>
	</outline>
</glyph>
<glyph name="three" format="2">
	<unicode hex="0033"/>
	<advance width="1116"/>
	<outline>
		<contour>
			<point x="499" y="-12" type="curve" smooth="yes"/>
			<point x="771" y="-12"/>
			<point x="966" y="176"/>
			<point x="966" y="417" type="curve" smooth="yes"/>
			<point x="966" y="634"/>
			<point x="834" y="804"/>
			<point x="621" y="876" type="curve"/>
			<point x="614" y="854" type="line"/>
			<point x="826" y="928"/>
			<point x="956" y="1077"/>
			<point x="956" y="1276" type="curve" smooth="yes"/>
			<point x="956" y="1479"/>
			<point x="795" y="1618"/>
			<point x="581" y="1618" type="curve" smooth="yes"/>
			<point x="431" y="1618"/>
			<point x="311" y="1567"/>
			<point x="207" y="1491" type="curve" smooth="yes"/>
			<point x="181" y="1472"/>
			<point x="176" y="1459"/>
			<point x="176" y="1449" type="curve" smooth="yes"/>
			<point x="176" y="1429"/>
			<point x="193" y="1414"/>
			<point x="211" y="1414" type="curve" smooth="yes"/>
			<point x="222" y="1414"/>
			<point x="231" y="1419"/>
			<point x="257" y="1436" type="curve" smooth="yes"/>
			<point x="345" y="1494"/>
			<point x="456" y="1540"/>
			<point x="568" y="1540" type="curve" smooth="yes"/>
			<point x="743" y="1540"/>
			<point x="875" y="1437"/>
			<point x="875" y="1263" type="curve" smooth="yes"/>
			<point x="875" y="1101"/>
			<point x="763" y="972"/>
			<point x="545" y="893" type="curve"/>
			<point x="513" y="899"/>
			<point x="474" y="906"/>
			<point x="442" y="906" type="curve" smooth="yes"/>
			<point x="410" y="906"/>
			<point x="389" y="887"/>
			<point x="389" y="861" type="curve" smooth="yes"/>
			<point x="389" y="828"/>
			<point x="407" y="807"/>
			<point x="436" y="807" type="curve" smooth="yes"/>
			<point x="463" y="807"/>
			<point x="500" y="813"/>
			<point x="537" y="823" type="curve"/>
			<point x="748" y="768"/>
			<point x="883" y="609"/>
			<point x="883" y="422" type="curve" smooth="yes"/>
			<point x="883" y="218"/>
			<point x="719" y="66"/>
			<point x="510" y="66" type="curve" smooth="yes"/>
			<point x="351" y="66"/>
			<point x="236" y="107"/>
			<point x="123" y="183" type="curve" smooth="yes"/>
			<point x="112" y="191"/>
			<point x="102" y="193"/>
			<point x="95" y="193" type="curve" smooth="yes"/>
			<point x="77" y="193"/>
			<point x="60" y="172"/>
			<point x="60" y="152" type="curve" smooth="yes"/>
			<point x="60" y="140"/>
			<point x="77" y="122"/>
			<point x="104" y="103" type="curve" smooth="yes"/>
			<point x="198" y="37"/>
			<point x="339" y="-12"/>
		</contour>
	</outline>
</glyph>
<glyph name="four" format="2">
	<unicode hex="0034"/>
	<advance width="1169"/>
	<outline>
		<contour>
			<point x="169" y="509" type="curve" smooth="yes"/>
			<point x="220" y="509"/>
			<point x="638" y="512"/>
			<point x="816" y="515" type="curve" smooth="yes"/>
			<point x="940" y="517"/>
			<point x="1039" y="518"/>
			<point x="1064" y="518" type="curve" smooth="yes"/>
			<point x="1099" y="518"/>
			<point x="1109" y="533"/>
			<point x="1109" y="556" type="curve" smooth="yes"/>
			<point x="1109" y="583"/>
			<point x="1096" y="596"/>
			<point x="1069" y="596" type="curve" smooth="yes"/>
			<point x="1047" y="596"/>
			<point x="917" y="593"/>
			<point x="857" y="592" type="curve" smooth="yes"/>
			<point x="166" y="580" type="line"/>
			<point x="181" y="555" type="line"/>
			<point x="315" y="876"/>
			<point x="450" y="1228"/>
			<point x="557" y="1549" type="curve" smooth="yes"/>
			<point x="564" y="1569"/>
			<point x="567" y="1581"/>
			<point x="567" y="1590" type="curve" smooth="yes"/>
			<point x="567" y="1605"/>
			<point x="543" y="1618"/>
			<point x="519" y="1618" type="curve" smooth="yes"/>
			<point x="501" y="1618"/>
			<point x="494" y="1610"/>
			<point x="484" y="1580" type="curve" smooth="yes"/>
			<point x="371" y="1244"/>
			<point x="245" y="896"/>
			<point x="127" y="620" type="curve" smooth="yes"/>
			<point x="114" y="590"/>
			<point x="110" y="575"/>
			<point x="110" y="558" type="curve" smooth="yes"/>
			<point x="110" y="533"/>
			<point x="131" y="509"/>
		</contour>
		<contour>
			<point x="720" y="43" type="curve" smooth="yes"/>
			<point x="739" y="342"/>
			<point x="764" y="650"/>
			<point x="785" y="892" type="curve" smooth="yes"/>
			<point x="787" y="916"/>
			<point x="788" y="932"/>
			<point x="788" y="948" type="curve" smooth="yes"/>
			<point x="788" y="967"/>
			<point x="769" y="974"/>
			<point x="745" y="974" type="curve" smooth="yes"/>
			<point x="721" y="974"/>
			<point x="714" y="961"/>
			<point x="709" y="912" type="curve" smooth="yes"/>
			<point x="691" y="735"/>
			<point x="656" y="266"/>
			<point x="647" y="112" type="curve" smooth="yes"/>
			<point x="644" y="59"/>
			<point x="643" y="37"/>
			<point x="643" y="25" type="curve" smooth="yes"/>
			<point x="643" y="-3"/>
			<point x="660" y="-12"/>
			<point x="680" y="-12" type="curve" smooth="yes"/>
			<point x="703" y="-12"/>
			<point x="717" y="-4"/>
		</contour>
	</outline>
</glyph>
<glyph name="question" format="2">
	<unicode hex="003F"/>
	<advance width="965"/>
	<outline>
		<contour>
			<point x="457" y="350" type="curve" smooth="yes"/>
			<point x="555" y="350"/>
			<point x="634" y="392"/>
			<point x="680" y="441" type="curve" smooth="yes"/>
			<point x="696" y="458"/>
			<point x="700" y="471"/>
			<point x="700" y="482" type="curve" smooth="yes"/>
			<point x="700" y="496"/>
			<point x="687" y="508"/>
			<point x="673" y="508" type="curve" smooth="yes"/>
			<point x="661" y="508"/>
			<point x="652" y="502"/>
			<point x="637" y="490" type="curve" smooth="yes"/>
			<point x="601" y="461"/>
			<point x="550" y="422"/>
			<point x="471" y="422" type="curve" smooth="yes"/>
			<point x="371" y="422"/>
			<point x="325" y="467"/>
			<point x="325" y="545" type="curve" smooth="yes"/>
			<point x="325" y="660"/>
			<point x="433" y="739"/>
			<point x="553" y="830" type="curve" smooth="yes"/>
			<point x="685" y="930"/>
			<point x="825" y="1037"/>
			<point x="825" y="1194" type="curve" smooth="yes"/>
			<point x="825" y="1340"/>
			<point x="709" y="1425"/>
			<point x="556" y="1425" type="curve" smooth="yes"/>
			<point x="445" y="1425"/>
			<point x="329" y="1390"/>
			<point x="227" y="1314" type="curve" smooth="yes"/>
			<point x="188" y="1285"/>
			<point x="180" y="1270"/>
			<point x="180" y="1257" type="curve" smooth="yes"/>
			<point x="180" y="1239"/>
			<point x="195" y="1222"/>
			<point x="214" y="1222" type="curve" smooth="yes"/>
			<point x="226" y="1222"/>
			<point x="232" y="1227"/>
			<point x="257" y="1245" type="curve" smooth="yes"/>
			<point x="362" y="1321"/>
			<point x="454" y="1348"/>
			<point x="544" y="1348" type="curve" smooth="yes"/>
			<point x="660" y="1348"/>
			<point x="745" y="1284"/>
			<point x="745" y="1185" type="curve" smooth="yes"/>
			<point x="745" y="1070"/>
			<point x="636" y="991"/>
			<point x="513" y="898" type="curve" smooth="yes"/>
			<point x="382" y="799"/>
			<point x="245" y="692"/>
			<point x="245" y="541" type="curve" smooth="yes"/>
			<point x="245" y="424"/>
			<point x="326" y="350"/>
		</contour>
		<contour>
			<point x="422" y="-12" type="curve" smooth="yes"/>
			<point x="472" y="-12"/>
			<point x="520" y="35"/>
			<point x="520" y="91" type="curve" smooth="yes"/>
			<point x="520" y="140"/>
			<point x="484" y="177"/>
			<point x="433" y="177" type="curve" smooth="yes"/>
			<point x="384" y="177"/>
			<point x="341" y="134"/>
			<point x="341" y="78" type="curve" smooth="yes"/>
			<point x="341" y="22"/>
			<point x="377" y="-12"/>
		</contour>
	</outline>
</glyph>
<glyph name="A" format="2">
	<unicode hex="0041"/>
	<advance width="1281"/>
	<outline>
		<contour>
			<point x="85" y="-12" type="curve" smooth="yes"/>
			<point x="104" y="-12"/>
			<point x="116" y="5"/>
			<point x="126" y="31" type="curve" smooth="yes"/>
			<point x="690" y="1486" type="line"/>
			<point x="666" y="1509" type="line"/>
			<point x="1049" y="42" type="line" smooth="yes"/>
			<point x="1060" y="-2"/>
			<point x="1074" y="-12"/>
			<point x="1094" y="-12" type="curve" smooth="yes"/>
			<point x="1122" y="-12"/>
			<point x="1141" y="4"/>
			<point x="1141" y="34" type="curve" smooth="yes"/>
			<point x="1141" y="40"/>
			<point x="1140" y="48"/>
			<point x="1138" y="56" type="curve" smooth="yes"/>
			<point x="741" y="1552" type="line" smooth="yes"/>
			<point x="731" y="1590"/>
			<point x="719" y="1600"/>
			<point x="699" y="1600" type="curve" smooth="yes"/>
			<point x="681" y="1600" type="line" smooth="yes"/>
			<point x="663" y="1600"/>
			<point x="650" y="1589"/>
			<point x="636" y="1554" type="curve" smooth="yes"/>
			<point x="50" y="62" type="line" smooth="yes"/>
			<point x="46" y="52"/>
			<point x="40" y="36"/>
			<point x="40" y="22" type="curve" smooth="yes"/>
			<point x="40" y="0"/>
			<point x="60" y="-12"/>
		</contour>
		<contour>
			<point x="337" y="626" type="curve" smooth="yes"/>
			<point x="906" y="626" type="line" smooth="yes"/>
			<point x="932" y="626"/>
			<point x="951" y="635"/>
			<point x="951" y="672" type="curve" smooth="yes"/>
			<point x="951" y="694"/>
			<point x="937" y="704"/>
			<point x="911" y="704" type="curve" smooth="yes"/>
			<point x="352" y="704" type="line" smooth="yes"/>
			<point x="326" y="704"/>
			<point x="307" y="694"/>
			<point x="307" y="666" type="curve" smooth="yes"/>
			<point x="307" y="635"/>
			<point x="321" y="626"/>
		</contour>
	</outline>
	<anchor name="bottom" x="574" y="0"/>
	<anchor name="ogonek" x="1084" y="0"/>
	<anchor name="top" x="689" y="1600"/>
	<anchor name="topleft" x="304" y="1600"/>
</glyph>
<glyph name="C" format="2">
	<unicode hex="0043"/>
	<advance width="1195"/>
	<outline>
		<contour>
			<point x="647" y="-12" type="curve" smooth="yes"/>
			<point x="807" y="-12"/>
			<point x="961" y="47"/>
			<point x="1055" y="131" type="curve" smooth="yes"/>
			<point x="1087" y="160"/>
			<point x="1095" y="173"/>
			<point x="1095" y="188" type="curve" smooth="yes"/>
			<point x="1095" y="207"/>
			<point x="1076" y="222"/>
			<point x="1063" y="222" type="curve" smooth="yes"/>
			<point x="1049" y="222"/>
			<point x="1036" y="211"/>
			<point x="1018" y="195" type="curve" smooth="yes"/>
			<point x="925" y="114"/>
			<point x="790" y="68"/>
			<point x="661" y="68" type="curve" smooth="yes"/>
			<point x="369" y="68"/>
			<point x="205" y="261"/>
			<point x="205" y="683" type="curve" smooth="yes"/>
			<point x="205" y="1198"/>
			<point x="462" y="1545"/>
			<point x="785" y="1545" type="curve" smooth="yes"/>
			<point x="877" y="1545"/>
			<point x="962" y="1516"/>
			<point x="1040" y="1450" type="curve" smooth="yes"/>
			<point x="1062" y="1431"/>
			<point x="1072" y="1428"/>
			<point x="1081" y="1428" type="curve" smooth="yes"/>
			<point x="1104" y="1428"/>
			<point x="1115" y="1446"/>
			<point x="1115" y="1462" type="curve" smooth="yes"/>
			<point x="1115" y="1477"/>
			<point x="1106" y="1498"/>
			<point x="1056" y="1536" type="curve" smooth="yes"/>
			<point x="988" y="1587"/>
			<point x="899" y="1625"/>
			<point x="782" y="1625" type="curve" smooth="yes"/>
			<point x="409" y="1625"/>
			<point x="120" y="1254"/>
			<point x="120" y="678" type="curve" smooth="yes"/>
			<point x="120" y="218"/>
			<point x="317" y="-12"/>
		</contour>
	</outline>
	<anchor name="bottom" x="658" y="0"/>
	<anchor name="top" x="762" y="1600"/>
</glyph>
<glyph name="D" format="2">
	<unicode hex="0044"/>
	<advance width="1303"/>
	<outline>
		<contour>
			<point x="336" y="-12" type="curve" smooth="yes"/>
			<point x="836" y="-12"/>
			<point x="1183" y="390"/>
			<point x="1183" y="948" type="curve" smooth="yes"/>
			<point x="1183" y="1379"/>
			<point x="920" y="1612"/>
			<point x="577" y="1612" type="curve" smooth="yes"/>
			<point x="447" y="1612"/>
			<point x="362" y="1601"/>
			<point x="315" y="1591" type="curve" smooth="yes"/>
			<point x="268" y="1581"/>
			<point x="250" y="1566"/>
			<point x="246" y="1511" type="curve" smooth="yes"/>
			<point x="154" y="119" type="line" smooth="yes"/>
			<point x="150" y="67"/>
			<point x="150" y="57"/>
			<point x="150" y="48" type="curve" smooth="yes"/>
			<point x="150" y="4"/>
			<point x="184" y="-12"/>
		</contour>
		<contour>
			<point x="355" y="66" type="curve" smooth="yes"/>
			<point x="328" y="66"/>
			<point x="269" y="68"/>
			<point x="236" y="71" type="curve"/>
			<point x="331" y="1517" type="line"/>
			<point x="363" y="1521"/>
			<point x="454" y="1534"/>
			<point x="569" y="1534" type="curve" smooth="yes"/>
			<point x="866" y="1534"/>
			<point x="1098" y="1338"/>
			<point x="1098" y="928" type="curve" smooth="yes"/>
			<point x="1098" y="448"/>
			<point x="785" y="66"/>
		</contour>
	</outline>
	<anchor name="bottom" x="330" y="0"/>
	<anchor name="center" x="360" y="830"/>
	<anchor name="top" x="593" y="1600"/>
</glyph>
<glyph name="H" format="2">
	<unicode hex="0048"/>
	<advance width="1321"/>
	<outline>
		<contour>
			<point x="188" y="-12" type="curve" smooth="yes"/>
			<point x="217" y="-12"/>
			<point x="232" y="2"/>
			<point x="234" y="31" type="curve" smooth="yes"/>
			<point x="332" y="1518" type="line" smooth="yes"/>
			<point x="333" y="1532"/>
			<point x="334" y="1546"/>
			<point x="334" y="1557" type="curve" smooth="yes"/>
			<point x="334" y="1588"/>
			<point x="317" y="1600"/>
			<point x="291" y="1600" type="curve" smooth="yes"/>
			<point x="265" y="1600"/>
			<point x="252" y="1586"/>
			<point x="250" y="1557" type="curve" smooth="yes"/>
			<point x="152" y="70" type="line" smooth="yes"/>
			<point x="151" y="56"/>
			<point x="150" y="42"/>
			<point x="150" y="31" type="curve" smooth="yes"/>
			<point x="150" y="0"/>
			<point x="165" y="-12"/>
		</contour>
		<contour>
			<point x="1025" y="-12" type="curve" smooth="yes"/>
			<point x="1054" y="-12"/>
			<point x="1069" y="2"/>
			<point x="1071" y="31" type="curve" smooth="yes"/>
			<point x="1169" y="1518" type="line" smooth="yes"/>
			<point x="1170" y="1532"/>
			<point x="1171" y="1546"/>
			<point x="1171" y="1557" type="curve" smooth="yes"/>
			<point x="1171" y="1588"/>
			<point x="1154" y="1600"/>
			<point x="1128" y="1600" type="curve" smooth="yes"/>
			<point x="1102" y="1600"/>
			<point x="1089" y="1586"/>
			<point x="1087" y="1557" type="curve" smooth="yes"/>
			<point x="989" y="70" type="line" smooth="yes"/>
			<point x="988" y="56"/>
			<point x="987" y="42"/>
			<point x="987" y="31" type="curve" smooth="yes"/>
			<point x="987" y="0"/>
			<point x="1002" y="-12"/>
		</contour>
		<contour>
			<point x="259" y="857" type="curve"/>
			<point x="259" y="781" type="line"/>
			<point x="323" y="778"/>
			<point x="543" y="777"/>
			<point x="758" y="777" type="curve" smooth="yes"/>
			<point x="821" y="777"/>
			<point x="955" y="779"/>
			<point x="1071" y="785" type="curve"/>
			<point x="1071" y="857" type="line"/>
			<point x="997" y="854"/>
			<point x="881" y="852"/>
			<point x="762" y="852" type="curve" smooth="yes"/>
			<point x="561" y="852"/>
			<point x="367" y="852"/>
		</contour>
	</outline>
	<anchor name="bottom" x="603" y="0"/>
	<anchor name="center" x="682" y="1220"/>
	<anchor name="top" x="706" y="1600"/>
	<anchor name="topleft" x="197" y="1600"/>
	<note>
u0048
</note>
</glyph>
<glyph name="K" format="2">
	<unicode hex="004B"/>
	<advance width="1136"/>
	<outline>
		<contour>
			<point x="188" y="-12" type="curve" smooth="yes"/>
			<point x="217" y="-12"/>
			<point x="232" y="2"/>
			<point x="234" y="31" type="curve" smooth="yes"/>
			<point x="332" y="1518" type="line" smooth="yes"/>
			<point x="333" y="1532"/>
			<point x="334" y="1546"/>
			<point x="334" y="1557" type="curve" smooth="yes"/>
			<point x="334" y="1588"/>
			<point x="317" y="1600"/>
			<point x="291" y="1600" type="curve" smooth="yes"/>
			<point x="265" y="1600"/>
			<point x="252" y="1586"/>
			<point x="250" y="1557" type="curve" smooth="yes"/>
			<point x="152" y="70" type="line" smooth="yes"/>
			<point x="151" y="56"/>
			<point x="150" y="42"/>
			<point x="150" y="31" type="curve" smooth="yes"/>
			<point x="150" y="0"/>
			<point x="165" y="-12"/>
		</contour>
		<contour>
			<point x="978" y="-12" type="curve" smooth="yes"/>
			<point x="1003" y="-12"/>
			<point x="1023" y="11"/>
			<point x="1023" y="37" type="curve" smooth="yes"/>
			<point x="1023" y="49"/>
			<point x="1013" y="64"/>
			<point x="992" y="90" type="curve" smooth="yes"/>
			<point x="362" y="851" type="line"/>
			<point x="359" y="795" type="line"/>
			<point x="1094" y="1509" type="line" smooth="yes"/>
			<point x="1119" y="1534"/>
			<point x="1126" y="1544"/>
			<point x="1126" y="1558" type="curve" smooth="yes"/>
			<point x="1126" y="1579"/>
			<point x="1110" y="1600"/>
			<point x="1088" y="1600" type="curve" smooth="yes"/>
			<point x="1076" y="1600"/>
			<point x="1068" y="1599"/>
			<point x="1046" y="1578" type="curve" smooth="yes"/>
			<point x="341" y="889" type="line" smooth="yes"/>
			<point x="315" y="863"/>
			<point x="305" y="844"/>
			<point x="305" y="821" type="curve" smooth="yes"/>
			<point x="305" y="797"/>
			<point x="315" y="777"/>
			<point x="341" y="745" type="curve" smooth="yes"/>
			<point x="927" y="26" type="line" smooth="yes"/>
			<point x="951" y="-3"/>
			<point x="963" y="-12"/>
		</contour>
	</outline>
	<anchor name="bottom" x="440" y="0"/>
	<anchor name="top" x="693" y="1600"/>
	<anchor name="topleft" x="219" y="1600"/>
</glyph>
<glyph name="M" format="2">
	<unicode hex="004D"/>
	<advance width="1765"/>
	<outline>
		<contour>
			<point x="120" y="31" type="curve" smooth="yes"/>
			<point x="120" y="0"/>
			<point x="136" y="-12"/>
			<point x="158" y="-12" type="curve" smooth="yes"/>
			<point x="184" y="-12"/>
			<point x="195" y="2"/>
			<point x="199" y="31" type="curve" smooth="yes"/>
			<point x="361" y="1328" type="line" smooth="yes"/>
			<point x="367" y="1379"/>
			<point x="373" y="1435"/>
			<point x="376" y="1490" type="curve"/>
			<point x="367" y="1490" type="line"/>
			<point x="378" y="1427"/>
			<point x="392" y="1374"/>
			<point x="407" y="1323" type="curve" smooth="yes"/>
			<point x="761" y="93" type="line" smooth="yes"/>
			<point x="774" y="47"/>
			<point x="789" y="38"/>
			<point x="815" y="38" type="curve" smooth="yes"/>
			<point x="843" y="38"/>
			<point x="857" y="50"/>
			<point x="876" y="95" type="curve" smooth="yes"/>
			<point x="1387" y="1323" type="line" smooth="yes"/>
			<point x="1408" y="1374"/>
			<point x="1428" y="1424"/>
			<point x="1448" y="1490" type="curve"/>
			<point x="1442" y="1490" type="line"/>
			<point x="1440" y="1323" type="line"/>
			<point x="1452" y="31" type="line" smooth="yes"/>
			<point x="1452" y="2"/>
			<point x="1469" y="-12"/>
			<point x="1495" y="-12" type="curve" smooth="yes"/>
			<point x="1517" y="-12"/>
			<point x="1535" y="0"/>
			<point x="1535" y="31" type="curve" smooth="yes"/>
			<point x="1535" y="46"/>
			<point x="1534" y="111"/>
			<point x="1533" y="165" type="curve" smooth="yes"/>
			<point x="1509" y="1547" type="line" smooth="yes"/>
			<point x="1508" y="1578"/>
			<point x="1497" y="1600"/>
			<point x="1463" y="1600" type="curve" smooth="yes"/>
			<point x="1432" y="1600"/>
			<point x="1420" y="1593"/>
			<point x="1400" y="1546" type="curve" smooth="yes"/>
			<point x="875" y="284" type="line" smooth="yes"/>
			<point x="853" y="232"/>
			<point x="832" y="177"/>
			<point x="811" y="115" type="curve"/>
			<point x="833" y="115" type="line"/>
			<point x="819" y="179"/>
			<point x="805" y="234"/>
			<point x="789" y="288" type="curve" smooth="yes"/>
			<point x="426" y="1547" type="line" smooth="yes"/>
			<point x="413" y="1591"/>
			<point x="402" y="1600"/>
			<point x="367" y="1600" type="curve" smooth="yes"/>
			<point x="339" y="1600"/>
			<point x="319" y="1581"/>
			<point x="314" y="1544" type="curve" smooth="yes"/>
			<point x="122" y="70" type="line" smooth="yes"/>
			<point x="120" y="56"/>
			<point x="120" y="42"/>
		</contour>
	</outline>
	<anchor name="bottom" x="815" y="38"/>
	<anchor name="top" x="902" y="1600"/>
</glyph>
<glyph name="R" format="2">
	<unicode hex="0052"/>
	<advance width="1148"/>
	<outline>
		<contour>
			<point x="188" y="-12" type="curve" smooth="yes"/>
			<point x="221" y="-12"/>
			<point x="232" y="4"/>
			<point x="234" y="32" type="curve" smooth="yes"/>
			<point x="337" y="1527" type="line"/>
			<point x="372" y="1530"/>
			<point x="479" y="1534"/>
			<point x="550" y="1534" type="curve" smooth="yes"/>
			<point x="811" y="1534"/>
			<point x="958" y="1387"/>
			<point x="958" y="1175" type="curve" smooth="yes"/>
			<point x="958" y="953"/>
			<point x="790" y="811"/>
			<point x="511" y="811" type="curve" smooth="yes"/>
			<point x="264" y="811" type="line"/>
			<point x="259" y="733" type="line"/>
			<point x="504" y="733" type="line" smooth="yes"/>
			<point x="834" y="733"/>
			<point x="1038" y="909"/>
			<point x="1038" y="1186" type="curve" smooth="yes"/>
			<point x="1038" y="1441"/>
			<point x="862" y="1612"/>
			<point x="560" y="1612" type="curve" smooth="yes"/>
			<point x="466" y="1612"/>
			<point x="358" y="1607"/>
			<point x="319" y="1603" type="curve" smooth="yes"/>
			<point x="275" y="1598"/>
			<point x="256" y="1583"/>
			<point x="253" y="1537" type="curve" smooth="yes"/>
			<point x="154" y="119" type="line" smooth="yes"/>
			<point x="150" y="60"/>
			<point x="150" y="48"/>
			<point x="150" y="38" type="curve" smooth="yes"/>
			<point x="150" y="10"/>
			<point x="150" y="-12"/>
		</contour>
		<contour>
			<point x="946" y="-12" type="curve" smooth="yes"/>
			<point x="971" y="-12"/>
			<point x="993" y="12"/>
			<point x="993" y="36" type="curve" smooth="yes"/>
			<point x="993" y="48"/>
			<point x="985" y="58"/>
			<point x="962" y="84" type="curve" smooth="yes"/>
			<point x="455" y="660" type="line" smooth="yes"/>
			<point x="407" y="715"/>
			<point x="356" y="760"/>
			<point x="326" y="784" type="curve"/>
			<point x="276" y="742" type="line"/>
			<point x="893" y="26" type="line" smooth="yes"/>
			<point x="919" y="-4"/>
			<point x="931" y="-12"/>
		</contour>
	</outline>
	<anchor name="bottom" x="500" y="0"/>
	<anchor name="top" x="621" y="1600"/>
</glyph>
<glyph name="S" format="2">
	<unicode hex="0053"/>
	<advance width="1065"/>
	<outline>
		<contour>
			<point x="410" y="-12" type="curve" smooth="yes"/>
			<point x="702" y="-12"/>
			<point x="907" y="158"/>
			<point x="907" y="403" type="curve" smooth="yes"/>
			<point x="907" y="561"/>
			<point x="825" y="686"/>
			<point x="584" y="877" type="curve" smooth="yes"/>
			<point x="364" y="1051"/>
			<point x="296" y="1151"/>
			<point x="296" y="1278" type="curve" smooth="yes"/>
			<point x="296" y="1432"/>
			<point x="426" y="1545"/>
			<point x="602" y="1545" type="curve" smooth="yes"/>
			<point x="688" y="1545"/>
			<point x="760" y="1531"/>
			<point x="846" y="1497" type="curve" smooth="yes"/>
			<point x="872" y="1487"/>
			<point x="884" y="1483"/>
			<point x="892" y="1483" type="curve" smooth="yes"/>
			<point x="910" y="1483"/>
			<point x="925" y="1499"/>
			<point x="925" y="1520" type="curve" smooth="yes"/>
			<point x="925" y="1541"/>
			<point x="899" y="1561"/>
			<point x="847" y="1581" type="curve" smooth="yes"/>
			<point x="770" y="1610"/>
			<point x="691" y="1625"/>
			<point x="613" y="1625" type="curve" smooth="yes"/>
			<point x="380" y="1625"/>
			<point x="211" y="1476"/>
			<point x="211" y="1271" type="curve" smooth="yes"/>
			<point x="211" y="1116"/>
			<point x="289" y="996"/>
			<point x="527" y="808" type="curve" smooth="yes"/>
			<point x="751" y="631"/>
			<point x="822" y="525"/>
			<point x="822" y="389" type="curve" smooth="yes"/>
			<point x="822" y="205"/>
			<point x="650" y="68"/>
			<point x="418" y="68" type="curve" smooth="yes"/>
			<point x="328" y="68"/>
			<point x="227" y="83"/>
			<point x="155" y="106" type="curve" smooth="yes"/>
			<point x="125" y="116"/>
			<point x="108" y="120"/>
			<point x="95" y="120" type="curve" smooth="yes"/>
			<point x="75" y="120"/>
			<point x="60" y="104"/>
			<point x="60" y="83" type="curve" smooth="yes"/>
			<point x="60" y="67"/>
			<point x="73" y="54"/>
			<point x="100" y="42" type="curve" smooth="yes"/>
			<point x="175" y="9"/>
			<point x="298" y="-12"/>
		</contour>
	</outline>
	<anchor name="bottom" x="440" y="0"/>
	<anchor name="top" x="613" y="1600"/>
</glyph>
<glyph name="T" format="2">
	<unicode hex="0054"/>
	<advance width="1038"/>
	<outline>
		<contour>
			<point x="458" y="-12" type="curve" smooth="yes"/>
			<point x="487" y="-12"/>
			<point x="502" y="2"/>
			<point x="504" y="31" type="curve" smooth="yes"/>
			<point x="602" y="1525" type="line"/>
			<point x="1045" y="1525" type="line" smooth="yes"/>
			<point x="1075" y="1525"/>
			<point x="1098" y="1542"/>
			<point x="1098" y="1566" type="curve" smooth="yes"/>
			<point x="1098" y="1587"/>
			<point x="1081" y="1600"/>
			<point x="1057" y="1600" type="curve" smooth="yes"/>
			<point x="98" y="1600" type="line" smooth="yes"/>
			<point x="67" y="1600"/>
			<point x="50" y="1582"/>
			<point x="50" y="1562" type="curve" smooth="yes"/>
			<point x="50" y="1541"/>
			<point x="67" y="1525"/>
			<point x="96" y="1525" type="curve" smooth="yes"/>
			<point x="518" y="1525" type="line"/>
			<point x="422" y="70" type="line" smooth="yes"/>
			<point x="421" y="56"/>
			<point x="420" y="42"/>
			<point x="420" y="31" type="curve" smooth="yes"/>
			<point x="420" y="0"/>
			<point x="435" y="-12"/>
		</contour>
	</outline>
	<anchor name="bottom" x="458" y="0"/>
	<anchor name="center" x="520" y="830"/>
	<anchor name="top" x="561" y="1600"/>
</glyph>
<glyph name="Z" format="2">
	<unicode hex="005A"/>
	<advance width="1203"/>
	<outline>
		<contour>
			<point x="112" y="0" type="curve" smooth="yes"/>
			<point x="976" y="0" type="line" smooth="yes"/>
			<point x="1004" y="0"/>
			<point x="1024" y="12"/>
			<point x="1024" y="43" type="curve" smooth="yes"/>
			<point x="1024" y="66"/>
			<point x="1009" y="78"/>
			<point x="982" y="78" type="curve" smooth="yes"/>
			<point x="152" y="78" type="line"/>
			<point x="1127" y="1481" type="line" smooth="yes"/>
			<point x="1144" y="1506"/>
			<point x="1153" y="1526"/>
			<point x="1153" y="1548" type="curve" smooth="yes"/>
			<point x="1153" y="1576"/>
			<point x="1135" y="1600"/>
			<point x="1079" y="1600" type="curve" smooth="yes"/>
			<point x="279" y="1600" type="line" smooth="yes"/>
			<point x="249" y="1600"/>
			<point x="229" y="1589"/>
			<point x="229" y="1559" type="curve" smooth="yes"/>
			<point x="229" y="1534"/>
			<point x="244" y="1522"/>
			<point x="274" y="1522" type="curve" smooth="yes"/>
			<point x="1058" y="1522" type="line"/>
			<point x="84" y="125" type="line" smooth="yes"/>
			<point x="62" y="94"/>
			<point x="50" y="76"/>
			<point x="50" y="55" type="curve" smooth="yes"/>
			<point x="50" y="24"/>
			<point x="69" y="0"/>
		</contour>
	</outline>
	<anchor name="bottom" x="484" y="0"/>
	<anchor name="center" x="620" y="820"/>
	<anchor name="top" x="691" y="1600"/>
	<anchor name="topright" x="1186" y="1600"/>
</glyph>
<glyph name="b" format="2">
	<unicode hex="0062"/>
	<advance width="1040"/>
	<outline>
		<contour>
			<point x="432" y="-12" type="curve" smooth="yes"/>
			<point x="680" y="-12"/>
			<point x="920" y="241"/>
			<point x="920" y="625" type="curve" smooth="yes"/>
			<point x="920" y="833"/>
			<point x="844" y="935"/>
			<point x="699" y="935" type="curve" smooth="yes"/>
			<point x="500" y="935"/>
			<point x="340" y="744"/>
			<point x="200" y="349" type="curve"/>
			<point x="250" y="317" type="line"/>
			<point x="370" y="659"/>
			<point x="539" y="857"/>
			<point x="685" y="857" type="curve" smooth="yes"/>
			<point x="785" y="857"/>
			<point x="835" y="780"/>
			<point x="835" y="611" type="curve" smooth="yes"/>
			<point x="835" y="281"/>
			<point x="642" y="66"/>
			<point x="447" y="66" type="curve" smooth="yes"/>
			<point x="325" y="66"/>
			<point x="260" y="155"/>
			<point x="260" y="319" type="curve" smooth="yes"/>
			<point x="260" y="374"/>
			<point x="263" y="432"/>
			<point x="270" y="526" type="curve" smooth="yes"/>
			<point x="331" y="1329" type="line" smooth="yes"/>
			<point x="332" y="1342"/>
			<point x="332" y="1347"/>
			<point x="332" y="1354" type="curve" smooth="yes"/>
			<point x="332" y="1385"/>
			<point x="320" y="1400"/>
			<point x="290" y="1400" type="curve" smooth="yes"/>
			<point x="266" y="1400"/>
			<point x="248" y="1391"/>
			<point x="245" y="1346" type="curve" smooth="yes"/>
			<point x="192" y="557" type="line" smooth="yes"/>
			<point x="183" y="423"/>
			<point x="180" y="361"/>
			<point x="180" y="310" type="curve" smooth="yes"/>
			<point x="180" y="88"/>
			<point x="283" y="-12"/>
		</contour>
	</outline>
</glyph>
<glyph name="c" format="2">
	<unicode hex="0063"/>
	<advance width="841"/>
	<outline>
		<contour>
			<point x="448" y="-12" type="curve" smooth="yes"/>
			<point x="555" y="-12"/>
			<point x="638" y="18"/>
			<point x="699" y="64" type="curve" smooth="yes"/>
			<point x="742" y="96"/>
			<point x="753" y="110"/>
			<point x="753" y="125" type="curve" smooth="yes"/>
			<point x="753" y="142"/>
			<point x="733" y="160"/>
			<point x="720" y="160" type="curve" smooth="yes"/>
			<point x="710" y="160"/>
			<point x="703" y="156"/>
			<point x="677" y="137" type="curve" smooth="yes"/>
			<point x="613" y="90"/>
			<point x="546" y="66"/>
			<point x="462" y="66" type="curve" smooth="yes"/>
			<point x="302" y="66"/>
			<point x="205" y="176"/>
			<point x="205" y="406" type="curve" smooth="yes"/>
			<point x="205" y="656"/>
			<point x="358" y="857"/>
			<point x="529" y="857" type="curve" smooth="yes"/>
			<point x="593" y="857"/>
			<point x="642" y="843"/>
			<point x="689" y="815" type="curve" smooth="yes"/>
			<point x="712" y="801"/>
			<point x="722" y="795"/>
			<point x="733" y="795" type="curve" smooth="yes"/>
			<point x="750" y="795"/>
			<point x="766" y="815"/>
			<point x="766" y="832" type="curve" smooth="yes"/>
			<point x="766" y="847"/>
			<point x="756" y="863"/>
			<point x="714" y="889" type="curve" smooth="yes"/>
			<point x="666" y="918"/>
			<point x="606" y="935"/>
			<point x="539" y="935" type="curve" smooth="yes"/>
			<point x="302" y="935"/>
			<point x="120" y="705"/>
			<point x="120" y="395" type="curve" smooth="yes"/>
			<point x="120" y="129"/>
			<point x="244" y="-12"/>
		</contour>
	</outline>
	<anchor name="bottom" x="450" y="0"/>
	<anchor name="top" x="529" y="920"/>
</glyph>
<glyph name="f" format="2">
	<unicode hex="0066"/>
	<advance width="626"/>
	<outline>
		<contour>
			<point x="265" y="-425" type="curve" smooth="yes"/>
			<point x="364" y="1071" type="line" smooth="yes"/>
			<point x="377" y="1260"/>
			<point x="452" y="1347"/>
			<point x="561" y="1347" type="curve" smooth="yes"/>
			<point x="622" y="1347"/>
			<point x="662" y="1323"/>
			<point x="688" y="1306" type="curve" smooth="yes"/>
			<point x="701" y="1298"/>
			<point x="711" y="1292"/>
			<point x="719" y="1292" type="curve" smooth="yes"/>
			<point x="739" y="1292"/>
			<point x="755" y="1312"/>
			<point x="755" y="1332" type="curve" smooth="yes"/>
			<point x="755" y="1363"/>
			<point x="676" y="1425"/>
			<point x="569" y="1425" type="curve" smooth="yes"/>
			<point x="412" y="1425"/>
			<point x="294" y="1314"/>
			<point x="279" y="1090" type="curve" smooth="yes"/>
			<point x="181" y="-409" type="line" smooth="yes"/>
			<point x="180" y="-421"/>
			<point x="180" y="-423"/>
			<point x="180" y="-431" type="curve" smooth="yes"/>
			<point x="180" y="-457"/>
			<point x="194" y="-470"/>
			<point x="220" y="-470" type="curve" smooth="yes"/>
			<point x="245" y="-470"/>
			<point x="263" y="-457"/>
		</contour>
		<contour>
			<point x="140" y="845" type="curve" smooth="yes"/>
			<point x="589" y="845" type="line" smooth="yes"/>
			<point x="615" y="845"/>
			<point x="634" y="856"/>
			<point x="634" y="886" type="curve" smooth="yes"/>
			<point x="634" y="909"/>
			<point x="620" y="920"/>
			<point x="594" y="920" type="curve" smooth="yes"/>
			<point x="145" y="920" type="line" smooth="yes"/>
			<point x="119" y="920"/>
			<point x="100" y="909"/>
			<point x="100" y="880" type="curve" smooth="yes"/>
			<point x="100" y="856"/>
			<point x="114" y="845"/>
		</contour>
	</outline>
	<guideline x="323" y="454" angle="86.1904"/>
	<guideline x="100" y="870" angle="90"/>
</glyph>
<glyph name="g" format="2">
	<unicode hex="0067"/>
	<advance width="1039"/>
	<outline>
		<contour>
			<point x="431" y="-470" type="curve" smooth="yes"/>
			<point x="662" y="-470"/>
			<point x="799" y="-340"/>
			<point x="823" y="25" type="curve" smooth="yes"/>
			<point x="876" y="843" type="line" smooth="yes"/>
			<point x="877" y="866"/>
			<point x="879" y="886"/>
			<point x="879" y="891" type="curve" smooth="yes"/>
			<point x="879" y="922"/>
			<point x="867" y="935"/>
			<point x="838" y="935" type="curve" smooth="yes"/>
			<point x="814" y="935"/>
			<point x="796" y="926"/>
			<point x="793" y="881" type="curve" smooth="yes"/>
			<point x="740" y="50" type="line" smooth="yes"/>
			<point x="718" y="-290"/>
			<point x="612" y="-392"/>
			<point x="441" y="-392" type="curve" smooth="yes"/>
			<point x="356" y="-392"/>
			<point x="289" y="-368"/>
			<point x="219" y="-311" type="curve" smooth="yes"/>
			<point x="198" y="-294"/>
			<point x="189" y="-289"/>
			<point x="178" y="-289" type="curve" smooth="yes"/>
			<point x="160" y="-289"/>
			<point x="139" y="-313"/>
			<point x="139" y="-334" type="curve" smooth="yes"/>
			<point x="139" y="-367"/>
			<point x="253" y="-470"/>
		</contour>
		<contour>
			<point x="333" y="-12" type="curve" smooth="yes"/>
			<point x="513" y="-12"/>
			<point x="700" y="214"/>
			<point x="840" y="691" type="curve"/>
			<point x="794" y="739" type="line"/>
			<point x="679" y="350"/>
			<point x="488" y="66"/>
			<point x="355" y="66" type="curve" smooth="yes"/>
			<point x="262" y="66"/>
			<point x="215" y="157"/>
			<point x="215" y="332" type="curve" smooth="yes"/>
			<point x="215" y="654"/>
			<point x="363" y="857"/>
			<point x="557" y="857" type="curve" smooth="yes"/>
			<point x="644" y="857"/>
			<point x="710" y="834"/>
			<point x="803" y="768" type="curve"/>
			<point x="808" y="844" type="line"/>
			<point x="724" y="907"/>
			<point x="639" y="935"/>
			<point x="553" y="935" type="curve" smooth="yes"/>
			<point x="308" y="935"/>
			<point x="130" y="700"/>
			<point x="130" y="328" type="curve" smooth="yes"/>
			<point x="130" y="108"/>
			<point x="204" y="-12"/>
		</contour>
	</outline>
	<anchor name="top" x="551" y="910"/>
	<guideline x="130" y="328" angle="90"/>
</glyph>
<glyph name="k" format="2">
	<unicode hex="006B"/>
	<advance width="925"/>
	<outline>
		<contour>
			<point x="788" y="-12" type="curve" smooth="yes"/>
			<point x="813" y="-12"/>
			<point x="835" y="11"/>
			<point x="835" y="36" type="curve" smooth="yes"/>
			<point x="835" y="48"/>
			<point x="827" y="61"/>
			<point x="803" y="86" type="curve" smooth="yes"/>
			<point x="349" y="567" type="line"/>
			<point x="344" y="520" type="line"/>
			<point x="823" y="850" type="line" smooth="yes"/>
			<point x="850" y="869"/>
			<point x="855" y="880"/>
			<point x="855" y="895" type="curve" smooth="yes"/>
			<point x="855" y="910"/>
			<point x="841" y="935"/>
			<point x="815" y="935" type="curve" smooth="yes"/>
			<point x="802" y="935"/>
			<point x="792" y="930"/>
			<point x="768" y="913" type="curve" smooth="yes"/>
			<point x="331" y="604" type="line" smooth="yes"/>
			<point x="304" y="585"/>
			<point x="291" y="567"/>
			<point x="291" y="541" type="curve" smooth="yes"/>
			<point x="291" y="517"/>
			<point x="297" y="502"/>
			<point x="332" y="464" type="curve" smooth="yes"/>
			<point x="735" y="26" type="line" smooth="yes"/>
			<point x="762" y="-3"/>
			<point x="773" y="-12"/>
		</contour>
		<contour>
			<point x="200" y="-12" type="curve" smooth="yes"/>
			<point x="225" y="-12"/>
			<point x="243" y="1"/>
			<point x="245" y="33" type="curve" smooth="yes"/>
			<point x="325" y="1300" type="line" smooth="yes"/>
			<point x="327" y="1324"/>
			<point x="328" y="1344"/>
			<point x="328" y="1356" type="curve" smooth="yes"/>
			<point x="328" y="1387"/>
			<point x="316" y="1400"/>
			<point x="287" y="1400" type="curve" smooth="yes"/>
			<point x="263" y="1400"/>
			<point x="245" y="1391"/>
			<point x="242" y="1346" type="curve" smooth="yes"/>
			<point x="161" y="49" type="line" smooth="yes"/>
			<point x="160" y="37"/>
			<point x="160" y="35"/>
			<point x="160" y="27" type="curve" smooth="yes"/>
			<point x="160" y="1"/>
			<point x="174" y="-12"/>
		</contour>
	</outline>
	<anchor name="bottom" x="460" y="0"/>
	<anchor name="top" x="287" y="1400"/>
</glyph>
<glyph name="l" format="2">
	<unicode hex="006C"/>
	<advance width="604"/>
	<outline>
		<contour>
			<point x="346" y="-12" type="curve" smooth="yes"/>
			<point x="410" y="-12"/>
			<point x="472" y="14"/>
			<point x="512" y="54" type="curve" smooth="yes"/>
			<point x="539" y="81"/>
			<point x="544" y="95"/>
			<point x="544" y="106" type="curve" smooth="yes"/>
			<point x="544" y="120"/>
			<point x="532" y="137"/>
			<point x="512" y="137" type="curve" smooth="yes"/>
			<point x="502" y="137"/>
			<point x="493" y="132"/>
			<point x="473" y="114" type="curve" smooth="yes"/>
			<point x="440" y="85"/>
			<point x="398" y="66"/>
			<point x="356" y="66" type="curve" smooth="yes"/>
			<point x="295" y="66"/>
			<point x="265" y="101"/>
			<point x="265" y="193" type="curve" smooth="yes"/>
			<point x="265" y="233"/>
			<point x="265" y="264"/>
			<point x="275" y="406" type="curve" smooth="yes"/>
			<point x="335" y="1300" type="line" smooth="yes"/>
			<point x="337" y="1324"/>
			<point x="338" y="1344"/>
			<point x="338" y="1356" type="curve" smooth="yes"/>
			<point x="338" y="1387"/>
			<point x="326" y="1400"/>
			<point x="297" y="1400" type="curve" smooth="yes"/>
			<point x="273" y="1400"/>
			<point x="255" y="1391"/>
			<point x="252" y="1346" type="curve" smooth="yes"/>
			<point x="191" y="411" type="line" smooth="yes"/>
			<point x="181" y="254"/>
			<point x="180" y="224"/>
			<point x="180" y="180" type="curve" smooth="yes"/>
			<point x="180" y="61"/>
			<point x="242" y="-12"/>
		</contour>
	</outline>
	<anchor name="bottom" x="326" y="0"/>
	<anchor name="center" x="264" y="845"/>
	<anchor name="top" x="297" y="1400"/>
	<anchor name="topright" x="427" y="1400"/>
</glyph>
<glyph name="p" format="2">
	<unicode hex="0070"/>
	<advance width="1060"/>
	<outline>
		<contour>
			<point x="233" y="-425" type="curve" smooth="yes"/>
			<point x="316" y="859" type="line" smooth="yes"/>
			<point x="317" y="879"/>
			<point x="317" y="882"/>
			<point x="317" y="891" type="curve" smooth="yes"/>
			<point x="317" y="922"/>
			<point x="305" y="935"/>
			<point x="276" y="935" type="curve" smooth="yes"/>
			<point x="252" y="935"/>
			<point x="234" y="926"/>
			<point x="231" y="881" type="curve" smooth="yes"/>
			<point x="147" y="-409" type="line" smooth="yes"/>
			<point x="146" y="-421"/>
			<point x="146" y="-427"/>
			<point x="146" y="-431" type="curve" smooth="yes"/>
			<point x="146" y="-457"/>
			<point x="160" y="-470"/>
			<point x="188" y="-470" type="curve" smooth="yes"/>
			<point x="213" y="-470"/>
			<point x="231" y="-457"/>
		</contour>
		<contour>
			<point x="256" y="123" type="curve"/>
			<point x="250" y="44" type="line"/>
			<point x="310" y="9"/>
			<point x="379" y="-12"/>
			<point x="462" y="-12" type="curve" smooth="yes"/>
			<point x="705" y="-12"/>
			<point x="940" y="236"/>
			<point x="940" y="625" type="curve" smooth="yes"/>
			<point x="940" y="833"/>
			<point x="864" y="935"/>
			<point x="719" y="935" type="curve" smooth="yes"/>
			<point x="550" y="935"/>
			<point x="410" y="788"/>
			<point x="285" y="492" type="curve"/>
			<point x="273" y="309" type="line"/>
			<point x="402" y="669"/>
			<point x="563" y="857"/>
			<point x="705" y="857" type="curve" smooth="yes"/>
			<point x="805" y="857"/>
			<point x="855" y="780"/>
			<point x="855" y="611" type="curve" smooth="yes"/>
			<point x="855" y="281"/>
			<point x="662" y="66"/>
			<point x="466" y="66" type="curve" smooth="yes"/>
			<point x="375" y="66"/>
			<point x="312" y="86"/>
		</contour>
	</outline>
</glyph>
<glyph name="q" format="2">
	<unicode hex="0071"/>
	<advance width="1041"/>
	<outline>
		<contour>
			<point x="333" y="-12" type="curve" smooth="yes"/>
			<point x="513" y="-12"/>
			<point x="700" y="214"/>
			<point x="840" y="691" type="curve"/>
			<point x="794" y="739" type="line"/>
			<point x="679" y="350"/>
			<point x="488" y="66"/>
			<point x="355" y="66" type="curve" smooth="yes"/>
			<point x="262" y="66"/>
			<point x="215" y="157"/>
			<point x="215" y="332" type="curve" smooth="yes"/>
			<point x="215" y="654"/>
			<point x="363" y="857"/>
			<point x="557" y="857" type="curve" smooth="yes"/>
			<point x="644" y="857"/>
			<point x="710" y="834"/>
			<point x="803" y="768" type="curve"/>
			<point x="808" y="844" type="line"/>
			<point x="724" y="907"/>
			<point x="639" y="935"/>
			<point x="553" y="935" type="curve" smooth="yes"/>
			<point x="308" y="935"/>
			<point x="130" y="700"/>
			<point x="130" y="328" type="curve" smooth="yes"/>
			<point x="130" y="108"/>
			<point x="204" y="-12"/>
		</contour>
		<contour>
			<point x="749" y="-470" type="curve" smooth="yes"/>
			<point x="774" y="-470"/>
			<point x="792" y="-457"/>
			<point x="794" y="-425" type="curve" smooth="yes"/>
			<point x="878" y="843" type="line" smooth="yes"/>
			<point x="880" y="866"/>
			<point x="881" y="879"/>
			<point x="881" y="891" type="curve" smooth="yes"/>
			<point x="881" y="922"/>
			<point x="869" y="935"/>
			<point x="840" y="935" type="curve" smooth="yes"/>
			<point x="816" y="935"/>
			<point x="798" y="926"/>
			<point x="795" y="881" type="curve" smooth="yes"/>
			<point x="710" y="-409" type="line" smooth="yes"/>
			<point x="709" y="-421"/>
			<point x="709" y="-423"/>
			<point x="709" y="-431" type="curve" smooth="yes"/>
			<point x="709" y="-457"/>
			<point x="723" y="-470"/>
		</contour>
	</outline>
</glyph>
<glyph name="y" format="2">
	<unicode hex="0079"/>
	<advance width="916"/>
	<outline>
		<contour>
			<point x="217" y="-470" type="curve" smooth="yes"/>
			<point x="251" y="-470"/>
			<point x="259" y="-459"/>
			<point x="347" y="-269" type="curve" smooth="yes"/>
			<point x="844" y="802" type="line" smooth="yes"/>
			<point x="881" y="881"/>
			<point x="885" y="890"/>
			<point x="885" y="902" type="curve" smooth="yes"/>
			<point x="885" y="920"/>
			<point x="856" y="935"/>
			<point x="833" y="935" type="curve" smooth="yes"/>
			<point x="817" y="935"/>
			<point x="810" y="927"/>
			<point x="794" y="893" type="curve" smooth="yes"/>
			<point x="414" y="71" type="line"/>
			<point x="442" y="70" type="line"/>
			<point x="181" y="891" type="line" smooth="yes"/>
			<point x="170" y="925"/>
			<point x="160" y="935"/>
			<point x="141" y="935" type="curve" smooth="yes"/>
			<point x="118" y="935"/>
			<point x="90" y="925"/>
			<point x="90" y="899" type="curve" smooth="yes"/>
			<point x="90" y="889"/>
			<point x="93" y="874"/>
			<point x="101" y="849" type="curve" smooth="yes"/>
			<point x="343" y="100" type="line" smooth="yes"/>
			<point x="365" y="32"/>
			<point x="377" y="10"/>
			<point x="411" y="4" type="curve"/>
			<point x="403" y="44" type="line"/>
			<point x="277" y="-227" type="line" smooth="yes"/>
			<point x="239" y="-309"/>
			<point x="212" y="-357"/>
			<point x="194" y="-387" type="curve" smooth="yes"/>
			<point x="179" y="-412"/>
			<point x="172" y="-425"/>
			<point x="172" y="-435" type="curve" smooth="yes"/>
			<point x="172" y="-453"/>
			<point x="189" y="-470"/>
		</contour>
	</outline>
	<anchor name="top" x="495" y="920"/>
	<anchor name="topright" x="886" y="920"/>
</glyph>
<glyph name="z" format="2">
	<unicode hex="007A"/>
	<advance width="878"/>
	<outline>
		<contour>
			<point x="128" y="0" type="curve" smooth="yes"/>
			<point x="726" y="0" type="line" smooth="yes"/>
			<point x="752" y="0"/>
			<point x="771" y="11"/>
			<point x="771" y="41" type="curve" smooth="yes"/>
			<point x="771" y="64"/>
			<point x="757" y="75"/>
			<point x="731" y="75" type="curve" smooth="yes"/>
			<point x="165" y="75" type="line"/>
			<point x="779" y="805" type="line" smooth="yes"/>
			<point x="799" y="829"/>
			<point x="808" y="849"/>
			<point x="808" y="867" type="curve" smooth="yes"/>
			<point x="808" y="896"/>
			<point x="788" y="920"/>
			<point x="741" y="920" type="curve" smooth="yes"/>
			<point x="201" y="920" type="line" smooth="yes"/>
			<point x="175" y="920"/>
			<point x="156" y="909"/>
			<point x="156" y="880" type="curve" smooth="yes"/>
			<point x="156" y="856"/>
			<point x="170" y="845"/>
			<point x="196" y="845" type="curve" smooth="yes"/>
			<point x="721" y="845" type="line"/>
			<point x="103" y="119" type="line" smooth="yes"/>
			<point x="74" y="85"/>
			<point x="70" y="66"/>
			<point x="70" y="49" type="curve" smooth="yes"/>
			<point x="70" y="21"/>
			<point x="91" y="0"/>
		</contour>
	</outline>
	<anchor name="bottom" x="247" y="0"/>
	<anchor name="top" x="480" y="920"/>
</glyph>
<glyph name="braceright" format="2">
	<unicode hex="007D"/>
	<advance width="775"/>
	<outline>
		<contour>
			<point x="238" y="1615" type="curve" smooth="yes"/>
			<point x="214" y="1615"/>
			<point x="204" y="1595"/>
			<point x="204" y="1577" type="curve" smooth="yes"/>
			<point x="204" y="1560"/>
			<point x="214" y="1549"/>
			<point x="235" y="1543" type="curve" smooth="yes"/>
			<point x="376" y="1504"/>
			<point x="443" y="1425"/>
			<point x="443" y="1315" type="curve" smooth="yes"/>
			<point x="443" y="1239"/>
			<point x="423" y="1150"/>
			<point x="402" y="1059" type="curve" smooth="yes"/>
			<point x="381" y="967"/>
			<point x="360" y="873"/>
			<point x="360" y="792" type="curve" smooth="yes"/>
			<point x="360" y="710"/>
			<point x="399" y="637"/>
			<point x="487" y="611" type="curve"/>
			<point x="488" y="629" type="line"/>
			<point x="377" y="600"/>
			<point x="327" y="538"/>
			<point x="327" y="415" type="curve" smooth="yes"/>
			<point x="327" y="376"/>
			<point x="330" y="324"/>
			<point x="335" y="264" type="curve" smooth="yes"/>
			<point x="341" y="187"/>
			<point x="346" y="102"/>
			<point x="346" y="21" type="curve" smooth="yes"/>
			<point x="346" y="-149"/>
			<point x="269" y="-247"/>
			<point x="74" y="-260" type="curve" smooth="yes"/>
			<point x="30" y="-263"/>
			<point x="20" y="-283"/>
			<point x="20" y="-303" type="curve" smooth="yes"/>
			<point x="20" y="-320"/>
			<point x="27" y="-335"/>
			<point x="65" y="-335" type="curve" smooth="yes"/>
			<point x="292" y="-335"/>
			<point x="427" y="-185"/>
			<point x="427" y="8" type="curve" smooth="yes"/>
			<point x="427" y="108"/>
			<point x="422" y="201"/>
			<point x="415" y="281" type="curve" smooth="yes"/>
			<point x="410" y="340"/>
			<point x="407" y="392"/>
			<point x="407" y="433" type="curve" smooth="yes"/>
			<point x="407" y="527"/>
			<point x="460" y="574"/>
			<point x="542" y="574" type="curve" smooth="yes"/>
			<point x="570" y="574"/>
			<point x="588" y="574"/>
			<point x="606" y="574" type="curve" smooth="yes"/>
			<point x="631" y="574"/>
			<point x="655" y="587"/>
			<point x="655" y="616" type="curve" smooth="yes"/>
			<point x="655" y="641"/>
			<point x="634" y="653"/>
			<point x="595" y="655" type="curve" smooth="yes"/>
			<point x="480" y="660"/>
			<point x="440" y="700"/>
			<point x="440" y="797" type="curve" smooth="yes"/>
			<point x="440" y="871"/>
			<point x="460" y="960"/>
			<point x="481" y="1049" type="curve" smooth="yes"/>
			<point x="502" y="1139"/>
			<point x="523" y="1230"/>
			<point x="523" y="1306" type="curve" smooth="yes"/>
			<point x="523" y="1436"/>
			<point x="467" y="1528"/>
			<point x="337" y="1589" type="curve" smooth="yes"/>
			<point x="295" y="1609"/>
			<point x="258" y="1615"/>
		</contour>
	</outline>
</glyph>
<glyph name="exclamdown" format="2">
	<unicode hex="00A1"/>
	<advance width="654"/>
	<outline>
		<contour>
			<point x="290" y="527" type="curve" smooth="yes"/>
			<point x="265" y="527"/>
			<point x="247" y="514"/>
			<point x="245" y="482" type="curve" smooth="yes"/>
			<point x="184" y="-406" type="line" smooth="yes"/>
			<point x="183" y="-421"/>
			<point x="183" y="-426"/>
			<point x="183" y="-431" type="curve" smooth="yes"/>
			<point x="183" y="-465"/>
			<point x="196" y="-477"/>
			<point x="225" y="-477" type="curve" smooth="yes"/>
			<point x="249" y="-477"/>
			<point x="267" y="-468"/>
			<point x="270" y="-423" type="curve" smooth="yes"/>
			<point x="329" y="480" type="line" smooth="yes"/>
			<point x="329" y="482"/>
			<point x="329" y="484"/>
			<point x="329" y="486" type="curve" smooth="yes"/>
			<point x="329" y="514"/>
			<point x="316" y="527"/>
		</contour>
		<contour>
			<point x="313" y="935" type="curve" smooth="yes"/>
			<point x="263" y="935"/>
			<point x="215" y="888"/>
			<point x="215" y="832" type="curve" smooth="yes"/>
			<point x="215" y="783"/>
			<point x="251" y="746"/>
			<point x="302" y="746" type="curve" smooth="yes"/>
			<point x="351" y="746"/>
			<point x="394" y="789"/>
			<point x="394" y="845" type="curve" smooth="yes"/>
			<point x="394" y="901"/>
			<point x="358" y="935"/>
		</contour>
	</outline>
</glyph>
<glyph name="yen" format="2">
	<unicode hex="00A5"/>
	<advance width="1200"/>
	<outline>
		<contour>
			<point x="534" y="-12" type="curve" smooth="yes"/>
			<point x="566" y="-12"/>
			<point x="578" y="10"/>
			<point x="579" y="34" type="curve" smooth="yes"/>
			<point x="615" y="660" type="line"/>
			<point x="1121" y="1507" type="line" smooth="yes"/>
			<point x="1137" y="1534"/>
			<point x="1146" y="1548"/>
			<point x="1146" y="1565" type="curve" smooth="yes"/>
			<point x="1146" y="1583"/>
			<point x="1126" y="1600"/>
			<point x="1102" y="1600" type="curve" smooth="yes"/>
			<point x="1088" y="1600"/>
			<point x="1079" y="1593"/>
			<point x="1056" y="1554" type="curve" smooth="yes"/>
			<point x="579" y="748" type="line"/>
			<point x="224" y="1562" type="line" smooth="yes"/>
			<point x="212" y="1589"/>
			<point x="207" y="1600"/>
			<point x="186" y="1600" type="curve" smooth="yes"/>
			<point x="159" y="1600"/>
			<point x="136" y="1582"/>
			<point x="136" y="1562" type="curve" smooth="yes"/>
			<point x="136" y="1550"/>
			<point x="140" y="1538"/>
			<point x="150" y="1516" type="curve" smooth="yes"/>
			<point x="532" y="660" type="line"/>
			<point x="491" y="60" type="line" smooth="yes"/>
			<point x="489" y="37"/>
			<point x="489" y="31"/>
			<point x="489" y="20" type="curve" smooth="yes"/>
			<point x="489" y="0"/>
			<point x="513" y="-12"/>
		</contour>
		<contour>
			<point x="158" y="768" type="curve" smooth="yes"/>
			<point x="510" y="768" type="line"/>
			<point x="475" y="843" type="line"/>
			<point x="163" y="843" type="line" smooth="yes"/>
			<point x="137" y="843"/>
			<point x="118" y="832"/>
			<point x="118" y="803" type="curve" smooth="yes"/>
			<point x="118" y="779"/>
			<point x="132" y="768"/>
		</contour>
		<contour>
			<point x="1031" y="843" type="curve" smooth="yes"/>
			<point x="695" y="843" type="line"/>
			<point x="660" y="768" type="line"/>
			<point x="1026" y="768" type="line" smooth="yes"/>
			<point x="1052" y="768"/>
			<point x="1071" y="779"/>
			<point x="1071" y="809" type="curve" smooth="yes"/>
			<point x="1071" y="832"/>
			<point x="1057" y="843"/>
		</contour>
		<contour>
			<point x="132" y="420" type="curve" smooth="yes"/>
			<point x="1001" y="420" type="line" smooth="yes"/>
			<point x="1027" y="420"/>
			<point x="1046" y="431"/>
			<point x="1046" y="461" type="curve" smooth="yes"/>
			<point x="1046" y="484"/>
			<point x="1032" y="495"/>
			<point x="1006" y="495" type="curve" smooth="yes"/>
			<point x="137" y="495" type="line" smooth="yes"/>
			<point x="111" y="495"/>
			<point x="92" y="484"/>
			<point x="92" y="455" type="curve" smooth="yes"/>
			<point x="92" y="431"/>
			<point x="106" y="420"/>
		</contour>
	</outline>
</glyph>
<glyph name="twosuperior" format="2">
	<unicode hex="00B2"/>
	<advance width="696"/>
	<outline>
		<contour>
			<point x="105" y="999" type="curve" smooth="yes"/>
			<point x="581" y="999" type="line" smooth="yes"/>
			<point x="614" y="999"/>
			<point x="626" y="1019"/>
			<point x="626" y="1045" type="curve" smooth="yes"/>
			<point x="626" y="1064"/>
			<point x="615" y="1080"/>
			<point x="591" y="1080" type="curve" smooth="yes"/>
			<point x="70" y="1080" type="line"/>
			<point x="69" y="1053" type="line"/>
			<point x="486" y="1294"/>
			<point x="611" y="1439"/>
			<point x="611" y="1596" type="curve" smooth="yes"/>
			<point x="611" y="1740"/>
			<point x="505" y="1828"/>
			<point x="377" y="1828" type="curve" smooth="yes"/>
			<point x="281" y="1828"/>
			<point x="185" y="1790"/>
			<point x="108" y="1730" type="curve" smooth="yes"/>
			<point x="81" y="1709"/>
			<point x="73" y="1695"/>
			<point x="73" y="1684" type="curve" smooth="yes"/>
			<point x="73" y="1669"/>
			<point x="88" y="1649"/>
			<point x="109" y="1649" type="curve" smooth="yes"/>
			<point x="120" y="1649"/>
			<point x="131" y="1654"/>
			<point x="152" y="1669" type="curve" smooth="yes"/>
			<point x="220" y="1717"/>
			<point x="296" y="1748"/>
			<point x="364" y="1748" type="curve" smooth="yes"/>
			<point x="461" y="1748"/>
			<point x="528" y="1689"/>
			<point x="528" y="1588" type="curve" smooth="yes"/>
			<point x="528" y="1461"/>
			<point x="425" y="1355"/>
			<point x="97" y="1146" type="curve" smooth="yes"/>
			<point x="44" y="1112"/>
			<point x="30" y="1093"/>
			<point x="30" y="1064" type="curve" smooth="yes"/>
			<point x="30" y="1028"/>
			<point x="57" y="999"/>
		</contour>
	</outline>
</glyph>
<glyph name="threesuperior" format="2">
	<unicode hex="00B3"/>
	<advance width="727"/>
	<outline>
		<contour>
			<point x="343" y="988" type="curve" smooth="yes"/>
			<point x="527" y="988"/>
			<point x="647" y="1085"/>
			<point x="647" y="1215" type="curve" smooth="yes"/>
			<point x="647" y="1321"/>
			<point x="566" y="1408"/>
			<point x="420" y="1443" type="curve"/>
			<point x="430" y="1420" type="line"/>
			<point x="554" y="1459"/>
			<point x="634" y="1530"/>
			<point x="634" y="1635" type="curve" smooth="yes"/>
			<point x="634" y="1745"/>
			<point x="531" y="1828"/>
			<point x="386" y="1828" type="curve" smooth="yes"/>
			<point x="288" y="1828"/>
			<point x="203" y="1803"/>
			<point x="134" y="1766" type="curve" smooth="yes"/>
			<point x="103" y="1749"/>
			<point x="96" y="1739"/>
			<point x="96" y="1725" type="curve" smooth="yes"/>
			<point x="96" y="1706"/>
			<point x="113" y="1686"/>
			<point x="129" y="1686" type="curve" smooth="yes"/>
			<point x="138" y="1686"/>
			<point x="145" y="1687"/>
			<point x="167" y="1698" type="curve" smooth="yes"/>
			<point x="231" y="1730"/>
			<point x="303" y="1748"/>
			<point x="373" y="1748" type="curve" smooth="yes"/>
			<point x="475" y="1748"/>
			<point x="555" y="1699"/>
			<point x="555" y="1625" type="curve" smooth="yes"/>
			<point x="555" y="1554"/>
			<point x="493" y="1499"/>
			<point x="371" y="1464" type="curve"/>
			<point x="335" y="1473"/>
			<point x="304" y="1476"/>
			<point x="283" y="1476" type="curve" smooth="yes"/>
			<point x="252" y="1476"/>
			<point x="231" y="1458"/>
			<point x="231" y="1433" type="curve" smooth="yes"/>
			<point x="231" y="1403"/>
			<point x="253" y="1380"/>
			<point x="287" y="1380" type="curve" smooth="yes"/>
			<point x="307" y="1380"/>
			<point x="336" y="1385"/>
			<point x="370" y="1395" type="curve"/>
			<point x="489" y="1370"/>
			<point x="567" y="1302"/>
			<point x="567" y="1219" type="curve" smooth="yes"/>
			<point x="567" y="1129"/>
			<point x="486" y="1068"/>
			<point x="350" y="1068" type="curve" smooth="yes"/>
			<point x="260" y="1068"/>
			<point x="182" y="1085"/>
			<point x="106" y="1119" type="curve" smooth="yes"/>
			<point x="88" y="1127"/>
			<point x="81" y="1129"/>
			<point x="74" y="1129" type="curve" smooth="yes"/>
			<point x="57" y="1129"/>
			<point x="40" y="1106"/>
			<point x="40" y="1087" type="curve" smooth="yes"/>
			<point x="40" y="1074"/>
			<point x="54" y="1060"/>
			<point x="78" y="1048" type="curve" smooth="yes"/>
			<point x="135" y="1019"/>
			<point x="235" y="988"/>
		</contour>
	</outline>
</glyph>
<glyph name="onesuperior" format="2">
	<unicode hex="00B9"/>
	<advance width="504"/>
	<outline>
		<contour>
			<point x="278" y="989" type="curve" smooth="yes"/>
			<point x="312" y="989"/>
			<point x="324" y="1002"/>
			<point x="326" y="1028" type="curve" smooth="yes"/>
			<point x="382" y="1768" type="line" smooth="yes"/>
			<point x="383" y="1777"/>
			<point x="384" y="1786"/>
			<point x="384" y="1792" type="curve" smooth="yes"/>
			<point x="384" y="1811"/>
			<point x="369" y="1828"/>
			<point x="346" y="1828" type="curve" smooth="yes"/>
			<point x="335" y="1828"/>
			<point x="328" y="1825"/>
			<point x="303" y="1810" type="curve" smooth="yes"/>
			<point x="251" y="1779"/>
			<point x="164" y="1728"/>
			<point x="83" y="1684" type="curve" smooth="yes"/>
			<point x="55" y="1669"/>
			<point x="50" y="1658"/>
			<point x="50" y="1646" type="curve" smooth="yes"/>
			<point x="50" y="1624"/>
			<point x="70" y="1603"/>
			<point x="85" y="1603" type="curve" smooth="yes"/>
			<point x="93" y="1603"/>
			<point x="101" y="1605"/>
			<point x="120" y="1615" type="curve" smooth="yes"/>
			<point x="196" y="1654"/>
			<point x="266" y="1694"/>
			<point x="318" y="1727" type="curve"/>
			<point x="301" y="1732" type="line"/>
			<point x="244" y="1051" type="line" smooth="yes"/>
			<point x="243" y="1040"/>
			<point x="243" y="1028"/>
			<point x="243" y="1023" type="curve" smooth="yes"/>
			<point x="243" y="999"/>
			<point x="256" y="989"/>
		</contour>
	</outline>
</glyph>
<glyph name="questiondown" format="2">
	<unicode hex="00BF"/>
	<advance width="965"/>
	<outline>
		<contour>
			<point x="508" y="573" type="curve" smooth="yes"/>
			<point x="410" y="573"/>
			<point x="331" y="531"/>
			<point x="285" y="482" type="curve" smooth="yes"/>
			<point x="269" y="465"/>
			<point x="265" y="452"/>
			<point x="265" y="441" type="curve" smooth="yes"/>
			<point x="265" y="427"/>
			<point x="278" y="415"/>
			<point x="292" y="415" type="curve" smooth="yes"/>
			<point x="304" y="415"/>
			<point x="313" y="421"/>
			<point x="328" y="433" type="curve" smooth="yes"/>
			<point x="364" y="462"/>
			<point x="415" y="501"/>
			<point x="494" y="501" type="curve" smooth="yes"/>
			<point x="594" y="501"/>
			<point x="640" y="456"/>
			<point x="640" y="378" type="curve" smooth="yes"/>
			<point x="640" y="263"/>
			<point x="532" y="184"/>
			<point x="412" y="93" type="curve" smooth="yes"/>
			<point x="280" y="-7"/>
			<point x="140" y="-114"/>
			<point x="140" y="-271" type="curve" smooth="yes"/>
			<point x="140" y="-417"/>
			<point x="256" y="-502"/>
			<point x="409" y="-502" type="curve" smooth="yes"/>
			<point x="520" y="-502"/>
			<point x="636" y="-467"/>
			<point x="738" y="-391" type="curve" smooth="yes"/>
			<point x="777" y="-362"/>
			<point x="785" y="-347"/>
			<point x="785" y="-334" type="curve" smooth="yes"/>
			<point x="785" y="-316"/>
			<point x="770" y="-299"/>
			<point x="751" y="-299" type="curve" smooth="yes"/>
			<point x="739" y="-299"/>
			<point x="733" y="-304"/>
			<point x="708" y="-322" type="curve" smooth="yes"/>
			<point x="603" y="-398"/>
			<point x="511" y="-425"/>
			<point x="421" y="-425" type="curve" smooth="yes"/>
			<point x="305" y="-425"/>
			<point x="220" y="-361"/>
			<point x="220" y="-262" type="curve" smooth="yes"/>
			<point x="220" y="-147"/>
			<point x="329" y="-68"/>
			<point x="452" y="25" type="curve" smooth="yes"/>
			<point x="583" y="124"/>
			<point x="720" y="231"/>
			<point x="720" y="382" type="curve" smooth="yes"/>
			<point x="720" y="499"/>
			<point x="639" y="573"/>
		</contour>
		<contour>
			<point x="543" y="935" type="curve" smooth="yes"/>
			<point x="493" y="935"/>
			<point x="445" y="888"/>
			<point x="445" y="832" type="curve" smooth="yes"/>
			<point x="445" y="783"/>
			<point x="481" y="746"/>
			<point x="532" y="746" type="curve" smooth="yes"/>
			<point x="581" y="746"/>
			<point x="624" y="789"/>
			<point x="624" y="845" type="curve" smooth="yes"/>
			<point x="624" y="901"/>
			<point x="588" y="935"/>
		</contour>
	</outline>
</glyph>
<glyph name="AE" format="2">
	<unicode hex="00C6"/>
	<advance width="1774"/>
	<outline>
		<contour>
			<point x="939" y="65" type="curve"/>
			<point x="1035" y="1522" type="line"/>
			<point x="1651" y="1522" type="line" smooth="yes"/>
			<point x="1691" y="1522"/>
			<point x="1704" y="1538"/>
			<point x="1704" y="1565" type="curve" smooth="yes"/>
			<point x="1704" y="1585"/>
			<point x="1690" y="1600"/>
			<point x="1661" y="1600" type="curve" smooth="yes"/>
			<point x="1014" y="1600" type="line" smooth="yes"/>
			<point x="989" y="1600"/>
			<point x="977" y="1595"/>
			<point x="958" y="1565" type="curve" smooth="yes"/>
			<point x="17" y="67" type="line" smooth="yes"/>
			<point x="5" y="48"/>
			<point x="0" y="37"/>
			<point x="0" y="26" type="curve" smooth="yes"/>
			<point x="0" y="7"/>
			<point x="21" y="-12"/>
			<point x="45" y="-12" type="curve" smooth="yes"/>
			<point x="60" y="-12"/>
			<point x="68" y="-4"/>
			<point x="81" y="17" type="curve" smooth="yes"/>
			<point x="892" y="1318" type="line" smooth="yes"/>
			<point x="919" y="1361"/>
			<point x="947" y="1407"/>
			<point x="971" y="1453" type="curve"/>
			<point x="956" y="1456" type="line"/>
			<point x="949" y="1395"/>
			<point x="940" y="1308"/>
			<point x="935" y="1235" type="curve" smooth="yes"/>
			<point x="856" y="95" type="line" smooth="yes"/>
			<point x="855" y="81"/>
			<point x="854" y="67"/>
			<point x="854" y="56" type="curve" smooth="yes"/>
			<point x="854" y="9"/>
			<point x="877" y="-11"/>
			<point x="931" y="-11" type="curve" smooth="yes"/>
			<point x="1051" y="-11"/>
			<point x="1370" y="-7"/>
			<point x="1590" y="-5" type="curve" smooth="yes"/>
			<point x="1630" y="-5"/>
			<point x="1643" y="11"/>
			<point x="1643" y="38" type="curve" smooth="yes"/>
			<point x="1643" y="58"/>
			<point x="1629" y="73"/>
			<point x="1600" y="73" type="curve" smooth="yes"/>
			<point x="1559" y="73"/>
			<point x="1159" y="68"/>
		</contour>
		<contour>
			<point x="545" y="835" type="curve"/>
			<point x="498" y="759" type="line"/>
			<point x="1472" y="763" type="line" smooth="yes"/>
			<point x="1513" y="763"/>
			<point x="1525" y="777"/>
			<point x="1525" y="806" type="curve" smooth="yes"/>
			<point x="1525" y="824"/>
			<point x="1512" y="842"/>
			<point x="1483" y="842" type="curve" smooth="yes"/>
			<point x="1398" y="842"/>
			<point x="596" y="835"/>
		</contour>
	</outline>
	<anchor name="top" x="1350" y="1600"/>
</glyph>
<glyph name="germandbls" format="2">
	<unicode hex="00DF"/>
	<advance width="993"/>
	<outline>
		<contour>
			<point x="202" y="-11" type="curve" smooth="yes"/>
			<point x="236" y="-11"/>
			<point x="243" y="4"/>
			<point x="245" y="32" type="curve" smooth="yes"/>
			<point x="299" y="864" type="line" smooth="yes"/>
			<point x="322" y="1222"/>
			<point x="431" y="1347"/>
			<point x="610" y="1347" type="curve" smooth="yes"/>
			<point x="718" y="1347"/>
			<point x="790" y="1292"/>
			<point x="790" y="1214" type="curve" smooth="yes"/>
			<point x="790" y="1150"/>
			<point x="763" y="1106"/>
			<point x="646" y="1018" type="curve" smooth="yes"/>
			<point x="513" y="918"/>
			<point x="470" y="844"/>
			<point x="470" y="762" type="curve" smooth="yes"/>
			<point x="470" y="664"/>
			<point x="512" y="595"/>
			<point x="646" y="510" type="curve" smooth="yes"/>
			<point x="785" y="422"/>
			<point x="828" y="369"/>
			<point x="828" y="280" type="curve" smooth="yes"/>
			<point x="828" y="177"/>
			<point x="717" y="96"/>
			<point x="499" y="68" type="curve" smooth="yes"/>
			<point x="458" y="63"/>
			<point x="444" y="51"/>
			<point x="444" y="27" type="curve" smooth="yes"/>
			<point x="444" y="-1"/>
			<point x="460" y="-12"/>
			<point x="488" y="-12" type="curve" smooth="yes"/>
			<point x="497" y="-12"/>
			<point x="511" y="-11"/>
			<point x="537" y="-7" type="curve" smooth="yes"/>
			<point x="775" y="30"/>
			<point x="913" y="135"/>
			<point x="913" y="286" type="curve" smooth="yes"/>
			<point x="913" y="403"/>
			<point x="850" y="481"/>
			<point x="703" y="575" type="curve" smooth="yes"/>
			<point x="583" y="652"/>
			<point x="550" y="704"/>
			<point x="550" y="774" type="curve" smooth="yes"/>
			<point x="550" y="825"/>
			<point x="578" y="880"/>
			<point x="697" y="969" type="curve" smooth="yes"/>
			<point x="815" y="1057"/>
			<point x="870" y="1128"/>
			<point x="870" y="1224" type="curve" smooth="yes"/>
			<point x="870" y="1347"/>
			<point x="768" y="1425"/>
			<point x="620" y="1425" type="curve" smooth="yes"/>
			<point x="390" y="1425"/>
			<point x="241" y="1276"/>
			<point x="215" y="888" type="curve" smooth="yes"/>
			<point x="163" y="104" type="line" smooth="yes"/>
			<point x="161" y="67"/>
			<point x="160" y="40"/>
			<point x="160" y="27" type="curve" smooth="yes"/>
			<point x="160" y="1"/>
			<point x="169" y="-11"/>
		</contour>
	</outline>
</glyph>
<glyph name="eth" format="2">
	<unicode hex="00F0"/>
	<advance width="1000"/>
	<outline>
		<contour>
			<point x="870" y="599" type="curve" smooth="yes"/>
			<point x="870" y="914"/>
			<point x="744" y="1195"/>
			<point x="556" y="1355" type="curve" smooth="yes"/>
			<point x="520" y="1385"/>
			<point x="494" y="1400"/>
			<point x="475" y="1400" type="curve" smooth="yes"/>
			<point x="452" y="1400"/>
			<point x="440" y="1380"/>
			<point x="440" y="1361" type="curve" smooth="yes"/>
			<point x="440" y="1349"/>
			<point x="448" y="1342"/>
			<point x="468" y="1325" type="curve" smooth="yes"/>
			<point x="672" y="1152"/>
			<point x="785" y="895"/>
			<point x="785" y="594" type="curve" smooth="yes"/>
			<point x="785" y="234"/>
			<point x="656" y="66"/>
			<point x="466" y="66" type="curve" smooth="yes"/>
			<point x="301" y="66"/>
			<point x="205" y="197"/>
			<point x="205" y="426" type="curve" smooth="yes"/>
			<point x="205" y="685"/>
			<point x="360" y="835"/>
			<point x="553" y="835" type="curve" smooth="yes"/>
			<point x="658" y="835"/>
			<point x="725" y="799"/>
			<point x="795" y="739" type="curve"/>
			<point x="795" y="813" type="line"/>
			<point x="719" y="879"/>
			<point x="640" y="909"/>
			<point x="540" y="909" type="curve" smooth="yes"/>
			<point x="313" y="909"/>
			<point x="120" y="721"/>
			<point x="120" y="420" type="curve" smooth="yes"/>
			<point x="120" y="149"/>
			<point x="258" y="-12"/>
			<point x="458" y="-12" type="curve" smooth="yes"/>
			<point x="701" y="-12"/>
			<point x="870" y="200"/>
		</contour>
		<contour>
			<point x="499" y="1050" type="curve" smooth="yes"/>
			<point x="846" y="1201" type="line" smooth="yes"/>
			<point x="875" y="1214"/>
			<point x="887" y="1224"/>
			<point x="887" y="1242" type="curve" smooth="yes"/>
			<point x="887" y="1260"/>
			<point x="876" y="1282"/>
			<point x="854" y="1282" type="curve" smooth="yes"/>
			<point x="848" y="1282"/>
			<point x="841" y="1280"/>
			<point x="818" y="1270" type="curve" smooth="yes"/>
			<point x="460" y="1114" type="line" smooth="yes"/>
			<point x="435" y="1103"/>
			<point x="426" y="1092"/>
			<point x="426" y="1077" type="curve" smooth="yes"/>
			<point x="426" y="1059"/>
			<point x="440" y="1038"/>
			<point x="462" y="1038" type="curve" smooth="yes"/>
			<point x="467" y="1038"/>
			<point x="474" y="1039"/>
		</contour>
	</outline>
</glyph>
<glyph name="oslash" format="2">
	<unicode hex="00F8"/>
	<advance width="1005"/>
	<outline>
		<contour>
			<point x="455" y="-12" type="curve" smooth="yes"/>
			<point x="697" y="-12"/>
			<point x="885" y="218"/>
			<point x="885" y="528" type="curve" smooth="yes"/>
			<point x="885" y="667"/>
			<point x="851" y="771"/>
			<point x="789" y="840" type="curve"/>
			<point x="811" y="875" type="line" smooth="yes"/>
			<point x="840" y="920"/>
			<point x="844" y="933"/>
			<point x="844" y="940" type="curve" smooth="yes"/>
			<point x="844" y="959"/>
			<point x="829" y="973"/>
			<point x="807" y="973" type="curve" smooth="yes"/>
			<point x="796" y="973"/>
			<point x="788" y="968"/>
			<point x="761" y="925" type="curve" smooth="yes"/>
			<point x="736" y="885" type="line"/>
			<point x="685" y="918"/>
			<point x="623" y="935"/>
			<point x="550" y="935" type="curve" smooth="yes"/>
			<point x="302" y="935"/>
			<point x="120" y="705"/>
			<point x="120" y="395" type="curve" smooth="yes"/>
			<point x="120" y="252"/>
			<point x="156" y="145"/>
			<point x="222" y="77" type="curve"/>
			<point x="172" y="-2" type="line" smooth="yes"/>
			<point x="159" y="-22"/>
			<point x="155" y="-31"/>
			<point x="155" y="-40" type="curve" smooth="yes"/>
			<point x="155" y="-59"/>
			<point x="172" y="-72"/>
			<point x="192" y="-72" type="curve" smooth="yes"/>
			<point x="208" y="-72"/>
			<point x="214" y="-63"/>
			<point x="234" y="-31" type="curve" smooth="yes"/>
			<point x="275" y="34" type="line"/>
			<point x="325" y="4"/>
			<point x="385" y="-12"/>
		</contour>
		<contour>
			<point x="455" y="66" type="curve" smooth="yes"/>
			<point x="403" y="66"/>
			<point x="358" y="79"/>
			<point x="320" y="105" type="curve"/>
			<point x="740" y="763" type="line"/>
			<point x="778" y="707"/>
			<point x="800" y="625"/>
			<point x="800" y="517" type="curve" smooth="yes"/>
			<point x="800" y="267"/>
			<point x="654" y="66"/>
		</contour>
		<contour>
			<point x="205" y="406" type="curve" smooth="yes"/>
			<point x="205" y="656"/>
			<point x="354" y="857"/>
			<point x="550" y="857" type="curve" smooth="yes"/>
			<point x="604" y="857"/>
			<point x="652" y="843"/>
			<point x="691" y="814" type="curve"/>
			<point x="271" y="153" type="line"/>
			<point x="229" y="209"/>
			<point x="205" y="293"/>
		</contour>
	</outline>
	<anchor name="bottom" x="457" y="0"/>
	<anchor name="center" x="503" y="455"/>
	<anchor name="ogonek" x="492" y="0"/>
	<anchor name="top" x="547" y="910"/>
	<anchor name="topright" x="925" y="910"/>
</glyph>
<glyph name="thorn" format="2">
	<unicode hex="00FE"/>
	<advance width="1057"/>
	<outline>
		<contour>
			<point x="144" y="-431" type="curve" smooth="yes"/>
			<point x="144" y="-457"/>
			<point x="158" y="-470"/>
			<point x="186" y="-470" type="curve" smooth="yes"/>
			<point x="211" y="-470"/>
			<point x="229" y="-457"/>
			<point x="231" y="-425" type="curve" smooth="yes"/>
			<point x="342" y="1324" type="line" smooth="yes"/>
			<point x="343" y="1344"/>
			<point x="343" y="1347"/>
			<point x="343" y="1356" type="curve" smooth="yes"/>
			<point x="343" y="1387"/>
			<point x="331" y="1400"/>
			<point x="302" y="1400" type="curve" smooth="yes"/>
			<point x="278" y="1400"/>
			<point x="260" y="1391"/>
			<point x="257" y="1346" type="curve" smooth="yes"/>
			<point x="145" y="-409" type="line" smooth="yes"/>
			<point x="144" y="-421"/>
			<point x="144" y="-427"/>
		</contour>
		<contour>
			<point x="253" y="123" type="curve"/>
			<point x="247" y="44" type="line"/>
			<point x="307" y="9"/>
			<point x="376" y="-12"/>
			<point x="459" y="-12" type="curve" smooth="yes"/>
			<point x="702" y="-12"/>
			<point x="937" y="236"/>
			<point x="937" y="625" type="curve" smooth="yes"/>
			<point x="937" y="833"/>
			<point x="861" y="935"/>
			<point x="716" y="935" type="curve" smooth="yes"/>
			<point x="547" y="935"/>
			<point x="407" y="788"/>
			<point x="282" y="492" type="curve"/>
			<point x="269" y="309" type="line"/>
			<point x="399" y="669"/>
			<point x="560" y="857"/>
			<point x="702" y="857" type="curve" smooth="yes"/>
			<point x="802" y="857"/>
			<point x="852" y="780"/>
			<point x="852" y="611" type="curve" smooth="yes"/>
			<point x="852" y="281"/>
			<point x="659" y="66"/>
			<point x="463" y="66" type="curve" smooth="yes"/>
			<point x="372" y="66"/>
			<point x="309" y="86"/>
		</contour>
	</outline>
</glyph>
<glyph name="eogonek" format="2">
	<unicode hex="0119"/>
	<advance width="878"/>
	<outline>
		<contour>
			<point x="480" y="-235" type="curve" smooth="yes"/>
			<point x="480" y="-157"/>
			<point x="527" y="-76"/>
			<point x="687" y="59" type="curve" smooth="yes"/>
			<point x="758" y="119"/>
			<point x="768" y="137"/>
			<point x="768" y="148" type="curve" smooth="yes"/>
			<point x="768" y="167"/>
			<point x="748" y="186"/>
			<point x="732" y="186" type="curve" smooth="yes"/>
			<point x="723" y="186"/>
			<point x="715" y="182"/>
			<point x="688" y="157" type="curve" smooth="yes"/>
			<point x="627" y="100"/>
			<point x="539" y="66"/>
			<point x="452" y="66" type="curve" smooth="yes"/>
			<point x="281" y="66"/>
			<point x="204" y="190"/>
			<point x="204" y="370" type="curve" smooth="yes"/>
			<point x="204" y="674"/>
			<point x="358" y="857"/>
			<point x="531" y="857" type="curve" smooth="yes"/>
			<point x="625" y="857"/>
			<point x="683" y="808"/>
			<point x="683" y="724" type="curve" smooth="yes"/>
			<point x="683" y="594"/>
			<point x="543" y="475"/>
			<point x="198" y="475" type="curve" smooth="yes"/>
			<point x="169" y="475"/>
			<point x="151" y="464"/>
			<point x="151" y="444" type="curve" smooth="yes"/>
			<point x="151" y="422"/>
			<point x="172" y="406"/>
			<point x="198" y="406" type="curve" smooth="yes"/>
			<point x="570" y="406"/>
			<point x="763" y="545"/>
			<point x="763" y="737" type="curve" smooth="yes"/>
			<point x="763" y="855"/>
			<point x="680" y="935"/>
			<point x="540" y="935" type="curve" smooth="yes"/>
			<point x="323" y="935"/>
			<point x="120" y="727"/>
			<point x="120" y="365" type="curve" smooth="yes"/>
			<point x="120" y="136"/>
			<point x="232" y="-12"/>
			<point x="443" y="-12" type="curve" smooth="yes"/>
			<point x="490" y="-12"/>
			<point x="537" y="-4"/>
			<point x="581" y="10" type="curve"/>
			<point x="578" y="34" type="line"/>
			<point x="497" y="-17"/>
			<point x="400" y="-131"/>
			<point x="400" y="-250" type="curve" smooth="yes"/>
			<point x="400" y="-334"/>
			<point x="461" y="-386"/>
			<point x="534" y="-386" type="curve" smooth="yes"/>
			<point x="607" y="-386"/>
			<point x="662" y="-354"/>
			<point x="702" y="-315" type="curve" smooth="yes"/>
			<point x="720" y="-298"/>
			<point x="724" y="-287"/>
			<point x="724" y="-280" type="curve" smooth="yes"/>
			<point x="724" y="-263"/>
			<point x="710" y="-249"/>
			<point x="697" y="-249" type="curve" smooth="yes"/>
			<point x="687" y="-249"/>
			<point x="680" y="-253"/>
			<point x="663" y="-265" type="curve" smooth="yes"/>
			<point x="626" y="-291"/>
			<point x="586" y="-309"/>
			<point x="549" y="-309" type="curve" smooth="yes"/>
			<point x="506" y="-309"/>
			<point x="480" y="-289"/>
		</contour>
	</outline>
	<anchor name="bottom" x="451" y="0"/>
	<anchor name="top" x="525" y="920"/>
</glyph>
<glyph name="Iogonek" format="2">
	<unicode hex="012E"/>
	<advance width="487"/>
	<outline>
		<contour>
			<point x="134" y="-386" type="curve" smooth="yes"/>
			<point x="207" y="-386"/>
			<point x="262" y="-354"/>
			<point x="302" y="-315" type="curve" smooth="yes"/>
			<point x="320" y="-298"/>
			<point x="324" y="-287"/>
			<point x="324" y="-280" type="curve" smooth="yes"/>
			<point x="324" y="-263"/>
			<point x="310" y="-249"/>
			<point x="297" y="-249" type="curve" smooth="yes"/>
			<point x="287" y="-249"/>
			<point x="280" y="-253"/>
			<point x="263" y="-265" type="curve" smooth="yes"/>
			<point x="226" y="-291"/>
			<point x="186" y="-309"/>
			<point x="149" y="-309" type="curve" smooth="yes"/>
			<point x="106" y="-309"/>
			<point x="80" y="-289"/>
			<point x="80" y="-235" type="curve" smooth="yes"/>
			<point x="80" y="-168"/>
			<point x="121" y="-89"/>
			<point x="216" y="-11" type="curve" smooth="yes"/>
			<point x="232" y="2"/>
			<point x="236" y="13"/>
			<point x="237" y="31" type="curve" smooth="yes"/>
			<point x="335" y="1518" type="line" smooth="yes"/>
			<point x="336" y="1532"/>
			<point x="337" y="1546"/>
			<point x="337" y="1557" type="curve" smooth="yes"/>
			<point x="337" y="1588"/>
			<point x="320" y="1600"/>
			<point x="294" y="1600" type="curve" smooth="yes"/>
			<point x="268" y="1600"/>
			<point x="255" y="1586"/>
			<point x="253" y="1557" type="curve" smooth="yes"/>
			<point x="155" y="70" type="line" smooth="yes"/>
			<point x="154" y="56"/>
			<point x="153" y="42"/>
			<point x="153" y="31" type="curve" smooth="yes"/>
			<point x="153" y="26"/>
			<point x="153" y="22"/>
			<point x="153" y="17" type="curve"/>
			<point x="33" y="-83"/>
			<point x="0" y="-178"/>
			<point x="0" y="-250" type="curve" smooth="yes"/>
			<point x="0" y="-334"/>
			<point x="61" y="-386"/>
		</contour>
	</outline>
	<guideline x="337" y="1557" angle="90"/>
</glyph>
<glyph name="Eng" format="2">
	<unicode hex="014A"/>
	<advance width="1355"/>
	<outline>
		<contour>
			<point x="789" y="-472" type="curve" smooth="yes"/>
			<point x="964" y="-472"/>
			<point x="1081" y="-359"/>
			<point x="1103" y="-20" type="curve" smooth="yes"/>
			<point x="1203" y="1518" type="line" smooth="yes"/>
			<point x="1204" y="1532"/>
			<point x="1205" y="1546"/>
			<point x="1205" y="1557" type="curve" smooth="yes"/>
			<point x="1205" y="1588"/>
			<point x="1190" y="1600"/>
			<point x="1167" y="1600" type="curve" smooth="yes"/>
			<point x="1143" y="1600"/>
			<point x="1130" y="1586"/>
			<point x="1128" y="1557" type="curve" smooth="yes"/>
			<point x="1044" y="286" type="line" smooth="yes"/>
			<point x="1040" y="233"/>
			<point x="1041" y="179"/>
			<point x="1039" y="126" type="curve"/>
			<point x="1056" y="129" type="line"/>
			<point x="1035" y="176"/>
			<point x="1015" y="223"/>
			<point x="992" y="269" type="curve" smooth="yes"/>
			<point x="341" y="1542" type="line" smooth="yes"/>
			<point x="314" y="1595"/>
			<point x="304" y="1600"/>
			<point x="284" y="1600" type="curve" smooth="yes"/>
			<point x="262" y="1600"/>
			<point x="251" y="1586"/>
			<point x="249" y="1548" type="curve" smooth="yes"/>
			<point x="152" y="70" type="line" smooth="yes"/>
			<point x="151" y="56"/>
			<point x="150" y="42"/>
			<point x="150" y="31" type="curve" smooth="yes"/>
			<point x="150" y="0"/>
			<point x="164" y="-12"/>
			<point x="186" y="-12" type="curve" smooth="yes"/>
			<point x="212" y="-12"/>
			<point x="225" y="2"/>
			<point x="227" y="31" type="curve" smooth="yes"/>
			<point x="312" y="1317" type="line" smooth="yes"/>
			<point x="315" y="1364"/>
			<point x="315" y="1415"/>
			<point x="316" y="1464" type="curve"/>
			<point x="300" y="1461" type="line"/>
			<point x="318" y="1419"/>
			<point x="335" y="1373"/>
			<point x="354" y="1336" type="curve" smooth="yes"/>
			<point x="1026" y="25" type="line"/>
			<point x="1024" y="-10" type="line" smooth="yes"/>
			<point x="1007" y="-312"/>
			<point x="919" y="-394"/>
			<point x="782" y="-394" type="curve" smooth="yes"/>
			<point x="723" y="-394"/>
			<point x="666" y="-386"/>
			<point x="595" y="-347" type="curve" smooth="yes"/>
			<point x="576" y="-337"/>
			<point x="568" y="-336"/>
			<point x="563" y="-336" type="curve" smooth="yes"/>
			<point x="544" y="-336"/>
			<point x="528" y="-356"/>
			<point x="528" y="-376" type="curve" smooth="yes"/>
			<point x="528" y="-390"/>
			<point x="539" y="-402"/>
			<point x="556" y="-412" type="curve" smooth="yes"/>
			<point x="624" y="-452"/>
			<point x="712" y="-472"/>
		</contour>
	</outline>
	<anchor name="bottom" x="620" y="0"/>
	<anchor name="top" x="756" y="1600"/>
</glyph>
<glyph name="eng" format="2">
	<unicode hex="014B"/>
	<advance width="1061"/>
	<outline>
		<contour>
			<point x="200" y="-12" type="curve" smooth="yes"/>
			<point x="225" y="-12"/>
			<point x="242" y="1"/>
			<point x="245" y="33" type="curve" smooth="yes"/>
			<point x="247" y="54"/>
			<point x="248" y="94"/>
			<point x="249" y="115" type="curve"/>
			<point x="335" y="546"/>
			<point x="545" y="857"/>
			<point x="715" y="857" type="curve" smooth="yes"/>
			<point x="777" y="857"/>
			<point x="816" y="816"/>
			<point x="816" y="706" type="curve" smooth="yes"/>
			<point x="816" y="674"/>
			<point x="811" y="601"/>
			<point x="803" y="508" type="curve" smooth="yes"/>
			<point x="754" y="-88" type="line" smooth="yes"/>
			<point x="735" y="-324"/>
			<point x="682" y="-389"/>
			<point x="600" y="-389" type="curve" smooth="yes"/>
			<point x="557" y="-389"/>
			<point x="520" y="-373"/>
			<point x="474" y="-335" type="curve" smooth="yes"/>
			<point x="464" y="-327"/>
			<point x="458" y="-321"/>
			<point x="448" y="-321" type="curve" smooth="yes"/>
			<point x="434" y="-321"/>
			<point x="413" y="-339"/>
			<point x="413" y="-357" type="curve" smooth="yes"/>
			<point x="413" y="-397"/>
			<point x="508" y="-467"/>
			<point x="607" y="-467" type="curve" smooth="yes"/>
			<point x="726" y="-467"/>
			<point x="816" y="-384"/>
			<point x="838" y="-109" type="curve" smooth="yes"/>
			<point x="887" y="503" type="line" smooth="yes"/>
			<point x="896" y="615"/>
			<point x="901" y="682"/>
			<point x="901" y="719" type="curve" smooth="yes"/>
			<point x="901" y="874"/>
			<point x="831" y="935"/>
			<point x="726" y="935" type="curve" smooth="yes"/>
			<point x="538" y="935"/>
			<point x="373" y="736"/>
			<point x="256" y="370" type="curve"/>
			<point x="262" y="348" type="line"/>
			<point x="300" y="851" type="line" smooth="yes"/>
			<point x="302" y="878"/>
			<point x="302" y="884"/>
			<point x="302" y="888" type="curve" smooth="yes"/>
			<point x="302" y="922"/>
			<point x="289" y="935"/>
			<point x="260" y="935" type="curve" smooth="yes"/>
			<point x="236" y="935"/>
			<point x="218" y="926"/>
			<point x="215" y="881" type="curve" smooth="yes"/>
			<point x="161" y="49" type="line" smooth="yes"/>
			<point x="160" y="37"/>
			<point x="160" y="35"/>
			<point x="160" y="27" type="curve" smooth="yes"/>
			<point x="160" y="1"/>
			<point x="174" y="-12"/>
		</contour>
	</outline>
</glyph>
<glyph name="Uogonek" format="2">
	<unicode hex="0172"/>
	<advance width="1331"/>
	<outline>
		<contour>
			<point x="497" y="-12" type="curve" smooth="yes"/>
			<point x="794" y="-12"/>
			<point x="961" y="312"/>
			<point x="1064" y="810" type="curve"/>
			<point x="1052" y="695"/>
			<point x="1043" y="581"/>
			<point x="1029" y="422" type="curve" smooth="yes"/>
			<point x="1000" y="70" type="line" smooth="yes"/>
			<point x="999" y="63"/>
			<point x="998" y="45"/>
			<point x="998" y="33" type="curve" smooth="yes"/>
			<point x="998" y="26"/>
			<point x="998" y="22"/>
			<point x="998" y="17" type="curve"/>
			<point x="878" y="-83"/>
			<point x="845" y="-178"/>
			<point x="845" y="-250" type="curve" smooth="yes"/>
			<point x="845" y="-334"/>
			<point x="906" y="-386"/>
			<point x="979" y="-386" type="curve" smooth="yes"/>
			<point x="1052" y="-386"/>
			<point x="1107" y="-354"/>
			<point x="1147" y="-315" type="curve" smooth="yes"/>
			<point x="1165" y="-298"/>
			<point x="1169" y="-287"/>
			<point x="1169" y="-280" type="curve" smooth="yes"/>
			<point x="1169" y="-263"/>
			<point x="1155" y="-249"/>
			<point x="1142" y="-249" type="curve" smooth="yes"/>
			<point x="1132" y="-249"/>
			<point x="1125" y="-253"/>
			<point x="1108" y="-265" type="curve" smooth="yes"/>
			<point x="1071" y="-291"/>
			<point x="1031" y="-309"/>
			<point x="994" y="-309" type="curve" smooth="yes"/>
			<point x="951" y="-309"/>
			<point x="925" y="-289"/>
			<point x="925" y="-235" type="curve" smooth="yes"/>
			<point x="925" y="-168"/>
			<point x="966" y="-89"/>
			<point x="1066" y="-7" type="curve" smooth="yes"/>
			<point x="1073" y="-1"/>
			<point x="1080" y="6"/>
			<point x="1082" y="31" type="curve" smooth="yes"/>
			<point x="1178" y="1493" type="line" smooth="yes"/>
			<point x="1180" y="1527"/>
			<point x="1181" y="1546"/>
			<point x="1181" y="1557" type="curve" smooth="yes"/>
			<point x="1181" y="1588"/>
			<point x="1168" y="1600"/>
			<point x="1142" y="1600" type="curve" smooth="yes"/>
			<point x="1116" y="1600"/>
			<point x="1102" y="1585"/>
			<point x="1100" y="1556" type="curve" smooth="yes"/>
			<point x="1070" y="1162" type="line"/>
			<point x="955" y="407"/>
			<point x="772" y="66"/>
			<point x="507" y="66" type="curve" smooth="yes"/>
			<point x="342" y="66"/>
			<point x="253" y="163"/>
			<point x="253" y="386" type="curve" smooth="yes"/>
			<point x="253" y="468"/>
			<point x="257" y="522"/>
			<point x="265" y="622" type="curve" smooth="yes"/>
			<point x="332" y="1489" type="line" smooth="yes"/>
			<point x="335" y="1522"/>
			<point x="338" y="1555"/>
			<point x="338" y="1564" type="curve" smooth="yes"/>
			<point x="338" y="1587"/>
			<point x="329" y="1600"/>
			<point x="300" y="1600" type="curve" smooth="yes"/>
			<point x="269" y="1600"/>
			<point x="255" y="1587"/>
			<point x="252" y="1545" type="curve" smooth="yes"/>
			<point x="184" y="655" type="line" smooth="yes"/>
			<point x="175" y="535"/>
			<point x="170" y="464"/>
			<point x="170" y="375" type="curve" smooth="yes"/>
			<point x="170" y="125"/>
			<point x="287" y="-12"/>
		</contour>
	</outline>
	<anchor name="bottom" x="499" y="0"/>
	<anchor name="ogonek" x="1028" y="0"/>
	<anchor name="top" x="715" y="1600"/>
	<anchor name="topright" x="1188" y="1600"/>
</glyph>
<glyph name="jdotless" format="2">
	<unicode hex="0237"/>
	<advance width="484"/>
	<outline>
		<contour>
			<point x="55" y="-470" type="curve" smooth="yes"/>
			<point x="173" y="-470"/>
			<point x="241" y="-388"/>
			<point x="257" y="-146" type="curve" smooth="yes"/>
			<point x="320" y="831" type="line" smooth="yes"/>
			<point x="322" y="858"/>
			<point x="324" y="886"/>
			<point x="324" y="897" type="curve" smooth="yes"/>
			<point x="324" y="924"/>
			<point x="307" y="935"/>
			<point x="282" y="935" type="curve" smooth="yes"/>
			<point x="252" y="935"/>
			<point x="241" y="921"/>
			<point x="239" y="890" type="curve" smooth="yes"/>
			<point x="175" y="-123" type="line" smooth="yes"/>
			<point x="161" y="-337"/>
			<point x="116" y="-392"/>
			<point x="45" y="-392" type="curve" smooth="yes"/>
			<point x="1" y="-392"/>
			<point x="-41" y="-368"/>
			<point x="-77" y="-326" type="curve" smooth="yes"/>
			<point x="-86" y="-315"/>
			<point x="-92" y="-311"/>
			<point x="-102" y="-311" type="curve" smooth="yes"/>
			<point x="-119" y="-311"/>
			<point x="-141" y="-329"/>
			<point x="-141" y="-349" type="curve" smooth="yes"/>
			<point x="-141" y="-392"/>
			<point x="-48" y="-470"/>
		</contour>
	</outline>
	<anchor name="top" x="282" y="920"/>
</glyph>
<glyph name="dieresiscomb" format="2">
	<unicode hex="0308"/>
	<outline>
		<contour>
			<point x="128" y="1154" type="curve" smooth="yes"/>
			<point x="181" y="1154"/>
			<point x="221" y="1194"/>
			<point x="221" y="1248" type="curve" smooth="yes"/>
			<point x="221" y="1288"/>
			<point x="187" y="1322"/>
			<point x="146" y="1322" type="curve" smooth="yes"/>
			<point x="92" y="1322"/>
			<point x="52" y="1283"/>
			<point x="52" y="1229" type="curve" smooth="yes"/>
			<point x="52" y="1188"/>
			<point x="86" y="1154"/>
		</contour>
		<contour>
			<point x="443" y="1154" type="curve" smooth="yes"/>
			<point x="496" y="1154"/>
			<point x="536" y="1194"/>
			<point x="536" y="1248" type="curve" smooth="yes"/>
			<point x="536" y="1288"/>
			<point x="502" y="1322"/>
			<point x="461" y="1322" type="curve" smooth="yes"/>
			<point x="407" y="1322"/>
			<point x="367" y="1283"/>
			<point x="367" y="1229" type="curve" smooth="yes"/>
			<point x="367" y="1188"/>
			<point x="401" y="1154"/>
		</contour>
	</outline>
	<anchor name="_top" x="278" y="920"/>
	<anchor name="top" x="304" y="1315"/>
</glyph>
<glyph name="caroncomb" format="2">
	<unicode hex="030C"/>
	<outline>
		<contour>
			<point x="506" y="1437" type="curve" smooth="yes"/>
			<point x="493" y="1437"/>
			<point x="482" y="1430"/>
			<point x="464" y="1409" type="curve" smooth="yes"/>
			<point x="243" y="1154" type="line"/>
			<point x="287" y="1150" type="line"/>
			<point x="146" y="1389" type="line" smooth="yes"/>
			<point x="120" y="1432"/>
			<point x="111" y="1437"/>
			<point x="92" y="1437" type="curve" smooth="yes"/>
			<point x="71" y="1437"/>
			<point x="50" y="1415"/>
			<point x="50" y="1395" type="curve" smooth="yes"/>
			<point x="50" y="1384"/>
			<point x="56" y="1371"/>
			<point x="69" y="1349" type="curve" smooth="yes"/>
			<point x="208" y="1123" type="line" smooth="yes"/>
			<point x="226" y="1094"/>
			<point x="234" y="1085"/>
			<point x="258" y="1085" type="curve" smooth="yes"/>
			<point x="275" y="1085"/>
			<point x="288" y="1089"/>
			<point x="313" y="1118" type="curve" smooth="yes"/>
			<point x="520" y="1357" type="line" smooth="yes"/>
			<point x="541" y="1381"/>
			<point x="544" y="1388"/>
			<point x="544" y="1401" type="curve" smooth="yes"/>
			<point x="544" y="1424"/>
			<point x="525" y="1437"/>
		</contour>
	</outline>
	<anchor name="_top" x="250" y="920"/>
	<anchor name="top" x="284" y="1437"/>
</glyph>
<glyph name="dotbelowcomb" format="2">
	<unicode hex="0323"/>
	<outline>
		<contour>
			<point x="126" y="-312" type="curve" smooth="yes"/>
			<point x="179" y="-312"/>
			<point x="219" y="-272"/>
			<point x="219" y="-218" type="curve" smooth="yes"/>
			<point x="219" y="-178"/>
			<point x="185" y="-144"/>
			<point x="144" y="-144" type="curve" smooth="yes"/>
			<point x="90" y="-144"/>
			<point x="50" y="-183"/>
			<point x="50" y="-237" type="curve" smooth="yes"/>
			<point x="50" y="-278"/>
			<point x="84" y="-312"/>
		</contour>
	</outline>
	<anchor name="_bottom" x="146" y="0"/>
	<anchor name="bottom" x="126" y="-312"/>
</glyph>
<glyph name="endash" format="2">
	<unicode hex="2013"/>
	<advance width="1550"/>
	<outline>
		<contour>
			<point x="180" y="630" type="curve" smooth="yes"/>
			<point x="1365" y="630" type="line" smooth="yes"/>
			<point x="1391" y="630"/>
			<point x="1410" y="641"/>
			<point x="1410" y="671" type="curve" smooth="yes"/>
			<point x="1410" y="694"/>
			<point x="1396" y="705"/>
			<point x="1370" y="705" type="curve" smooth="yes"/>
			<point x="185" y="705" type="line" smooth="yes"/>
			<point x="159" y="705"/>
			<point x="140" y="694"/>
			<point x="140" y="665" type="curve" smooth="yes"/>
			<point x="140" y="641"/>
			<point x="154" y="630"/>
		</contour>
	</outline>
</glyph>
<glyph name="emdash" format="2">
	<unicode hex="2014"/>
	<advance width="2132"/>
	<outline>
		<contour>
			<point x="180" y="630" type="curve" smooth="yes"/>
			<point x="1947" y="630" type="line" smooth="yes"/>
			<point x="1973" y="630"/>
			<point x="1992" y="641"/>
			<point x="1992" y="671" type="curve" smooth="yes"/>
			<point x="1992" y="694"/>
			<point x="1978" y="705"/>
			<point x="1952" y="705" type="curve" smooth="yes"/>
			<point x="185" y="705" type="line" smooth="yes"/>
			<point x="159" y="705"/>
			<point x="140" y="694"/>
			<point x="140" y="665" type="curve" smooth="yes"/>
			<point x="140" y="641"/>
			<point x="154" y="630"/>
		</contour>
	</outline>
</glyph>
<glyph name="guilsinglright" format="2">
	<unicode hex="203A"/>
	<advance width="730"/>
	<outline>
		<contour>
			<point x="194" y="149" type="curve" smooth="yes"/>
			<point x="207" y="149"/>
			<point x="218" y="157"/>
			<point x="243" y="184" type="curve" smooth="yes"/>
			<point x="334" y="281"/>
			<point x="429" y="369"/>
			<point x="496" y="425" type="curve" smooth="yes"/>
			<point x="555" y="475"/>
			<point x="580" y="496"/>
			<point x="580" y="525" type="curve" smooth="yes"/>
			<point x="580" y="554"/>
			<point x="556" y="574"/>
			<point x="514" y="619" type="curve" smooth="yes"/>
			<point x="444" y="695"/>
			<point x="361" y="787"/>
			<point x="316" y="839" type="curve" smooth="yes"/>
			<point x="290" y="869"/>
			<point x="278" y="880"/>
			<point x="263" y="880" type="curve" smooth="yes"/>
			<point x="244" y="880"/>
			<point x="227" y="862"/>
			<point x="227" y="843" type="curve" smooth="yes"/>
			<point x="227" y="823"/>
			<point x="235" y="808"/>
			<point x="280" y="760" type="curve" smooth="yes"/>
			<point x="300" y="738"/>
			<point x="438" y="590"/>
			<point x="514" y="521" type="curve"/>
			<point x="512" y="535" type="line"/>
			<point x="413" y="455"/>
			<point x="330" y="380"/>
			<point x="227" y="277" type="curve" smooth="yes"/>
			<point x="164" y="214"/>
			<point x="160" y="197"/>
			<point x="160" y="184" type="curve" smooth="yes"/>
			<point x="160" y="162"/>
			<point x="177" y="149"/>
		</contour>
	</outline>
</glyph>
<glyph name="zerosuperior" format="2">
	<unicode hex="2070"/>
	<advance width="790"/>
	<outline>
		<contour>
			<point x="356" y="989" type="curve" smooth="yes"/>
			<point x="547" y="989"/>
			<point x="690" y="1180"/>
			<point x="690" y="1465" type="curve" smooth="yes"/>
			<point x="690" y="1702"/>
			<point x="589" y="1828"/>
			<point x="433" y="1828" type="curve" smooth="yes"/>
			<point x="243" y="1828"/>
			<point x="100" y="1638"/>
			<point x="100" y="1352" type="curve" smooth="yes"/>
			<point x="100" y="1115"/>
			<point x="201" y="989"/>
		</contour>
		<contour>
			<point x="360" y="1065" type="curve" smooth="yes"/>
			<point x="253" y="1065"/>
			<point x="182" y="1163"/>
			<point x="182" y="1355" type="curve" smooth="yes"/>
			<point x="182" y="1594"/>
			<point x="291" y="1752"/>
			<point x="428" y="1752" type="curve" smooth="yes"/>
			<point x="537" y="1752"/>
			<point x="608" y="1653"/>
			<point x="608" y="1461" type="curve" smooth="yes"/>
			<point x="608" y="1223"/>
			<point x="498" y="1065"/>
		</contour>
	</outline>
</glyph>
<glyph name="sevensuperior" format="2">
	<unicode hex="2077"/>
	<advance width="685"/>
	<outline>
		<contour>
			<point x="617" y="1763" type="line"/>
			<point x="473" y="1582"/>
			<point x="334" y="1357"/>
			<point x="179" y="1078" type="curve" smooth="yes"/>
			<point x="164" y="1051"/>
			<point x="159" y="1036"/>
			<point x="159" y="1027" type="curve" smooth="yes"/>
			<point x="159" y="1006"/>
			<point x="183" y="989"/>
			<point x="206" y="989" type="curve" smooth="yes"/>
			<point x="227" y="989"/>
			<point x="232" y="997"/>
			<point x="246" y="1025" type="curve" smooth="yes"/>
			<point x="391" y="1316"/>
			<point x="537" y="1552"/>
			<point x="640" y="1691" type="curve" smooth="yes"/>
			<point x="680" y="1745"/>
			<point x="685" y="1757"/>
			<point x="685" y="1775" type="curve" smooth="yes"/>
			<point x="685" y="1798"/>
			<point x="667" y="1818"/>
			<point x="633" y="1818" type="curve" smooth="yes"/>
			<point x="126" y="1818" type="line" smooth="yes"/>
			<point x="95" y="1818"/>
			<point x="80" y="1799"/>
			<point x="80" y="1775" type="curve" smooth="yes"/>
			<point x="80" y="1750"/>
			<point x="97" y="1738"/>
			<point x="126" y="1738" type="curve" smooth="yes"/>
			<point x="626" y="1738" type="line"/>
		</contour>
	</outline>
</glyph>
<glyph name="n.sups" format="2">
	<unicode hex="207F"/>
	<advance width="874"/>
	<outline>
		<contour>
			<point x="660" y="794" type="curve" smooth="yes"/>
			<point x="684" y="794"/>
			<point x="700" y="805"/>
			<point x="702" y="833" type="curve" smooth="yes"/>
			<point x="734" y="1217" type="line" smooth="yes"/>
			<point x="741" y="1301"/>
			<point x="744" y="1352"/>
			<point x="744" y="1383" type="curve" smooth="yes"/>
			<point x="744" y="1506"/>
			<point x="685" y="1558"/>
			<point x="597" y="1558" type="curve" smooth="yes"/>
			<point x="443" y="1558"/>
			<point x="308" y="1405"/>
			<point x="209" y="1114" type="curve"/>
			<point x="214" y="1097" type="line"/>
			<point x="244" y="1471" type="line" smooth="yes"/>
			<point x="246" y="1497"/>
			<point x="246" y="1511"/>
			<point x="246" y="1521" type="curve" smooth="yes"/>
			<point x="246" y="1547"/>
			<point x="235" y="1558"/>
			<point x="208" y="1558" type="curve" smooth="yes"/>
			<point x="184" y="1558"/>
			<point x="169" y="1551"/>
			<point x="166" y="1510" type="curve" smooth="yes"/>
			<point x="121" y="850" type="line" smooth="yes"/>
			<point x="120" y="840"/>
			<point x="120" y="835"/>
			<point x="120" y="829" type="curve" smooth="yes"/>
			<point x="120" y="805"/>
			<point x="133" y="794"/>
			<point x="158" y="794" type="curve" smooth="yes"/>
			<point x="182" y="794"/>
			<point x="197" y="805"/>
			<point x="200" y="833" type="curve" smooth="yes"/>
			<point x="202" y="851"/>
			<point x="202" y="882"/>
			<point x="203" y="900" type="curve"/>
			<point x="273" y="1241"/>
			<point x="445" y="1484"/>
			<point x="583" y="1484" type="curve" smooth="yes"/>
			<point x="634" y="1484"/>
			<point x="665" y="1451"/>
			<point x="665" y="1367" type="curve" smooth="yes"/>
			<point x="665" y="1341"/>
			<point x="661" y="1286"/>
			<point x="655" y="1215" type="curve" smooth="yes"/>
			<point x="624" y="851" type="line" smooth="yes"/>
			<point x="623" y="840"/>
			<point x="622" y="836"/>
			<point x="622" y="829" type="curve" smooth="yes"/>
			<point x="622" y="805"/>
			<point x="635" y="794"/>
		</contour>
	</outline>
</glyph>
<glyph name="lowerRightPencil" format="2">
	<unicode hex="270E"/>
	<advance width="1431"/>
	<outline>
		<contour>
			<point x="764" y="1896" type="curve"/>
			<point x="300" y="-208" type="line"/>
			<point x="332" y="-623" type="line" smooth="yes"/>
			<point x="336" y="-683"/>
			<point x="345" y="-703"/>
			<point x="361" y="-703" type="curve" smooth="yes"/>
			<point x="377" y="-703"/>
			<point x="390" y="-691"/>
			<point x="417" y="-654" type="curve" smooth="yes"/>
			<point x="671" y="-303" type="line"/>
			<point x="1131" y="1813" type="line"/>
			<point x="1099" y="1906"/>
			<point x="1019" y="1953"/>
			<point x="930" y="1953" type="curve" smooth="yes"/>
			<point x="875" y="1953"/>
			<point x="816" y="1935"/>
		</contour>
		<contour>
			<point x="365" y="-515" type="curve"/>
			<point x="341" y="-205" type="line"/>
			<point x="374" y="-191"/>
			<point x="415" y="-183"/>
			<point x="454" y="-183" type="curve" smooth="yes"/>
			<point x="518" y="-183"/>
			<point x="588" y="-220"/>
			<point x="628" y="-287" type="curve"/>
			<point x="445" y="-547" type="line"/>
			<point x="441" y="-522"/>
			<point x="424" y="-505"/>
			<point x="400" y="-505" type="curve" smooth="yes"/>
			<point x="386" y="-505"/>
			<point x="374" y="-509"/>
		</contour>
	</outline>
</glyph>
<glyph name="checkmark" format="2">
	<unicode hex="2713"/>
	<advance width="1479"/>
	<outline>
		<contour>
			<point x="200" y="515" type="curve" smooth="yes"/>
			<point x="200" y="508"/>
			<point x="203" y="498"/>
			<point x="209" y="487" type="curve" smooth="yes"/>
			<point x="279" y="363"/>
			<point x="366" y="171"/>
			<point x="409" y="59" type="curve" smooth="yes"/>
			<point x="432" y="-1"/>
			<point x="443" y="-12"/>
			<point x="471" y="-12" type="curve" smooth="yes"/>
			<point x="499" y="-12"/>
			<point x="520" y="8"/>
			<point x="544" y="68" type="curve" smooth="yes"/>
			<point x="724" y="518"/>
			<point x="997" y="1038"/>
			<point x="1230" y="1358" type="curve" smooth="yes"/>
			<point x="1270" y="1413"/>
			<point x="1279" y="1429"/>
			<point x="1279" y="1445" type="curve" smooth="yes"/>
			<point x="1278" y="1471"/>
			<point x="1250" y="1485"/>
			<point x="1237" y="1485" type="curve" smooth="yes"/>
			<point x="1220" y="1485"/>
			<point x="1208" y="1474"/>
			<point x="1173" y="1425" type="curve" smooth="yes"/>
			<point x="934" y="1092"/>
			<point x="673" y="588"/>
			<point x="460" y="42" type="curve"/>
			<point x="483" y="60" type="line"/>
			<point x="435" y="205"/>
			<point x="331" y="426"/>
			<point x="259" y="526" type="curve" smooth="yes"/>
			<point x="249" y="540"/>
			<point x="241" y="544"/>
			<point x="234" y="544" type="curve" smooth="yes"/>
			<point x="219" y="544"/>
			<point x="200" y="531"/>
		</contour>
	</outline>
	<anchor name="_check" x="471" y="-12"/>
</glyph>
<glyph name="gClef-musical" format="2">
	<unicode hex="1D11E"/>
	<advance width="1250"/>
	<outline>
		<contour>
			<point x="405" y="-261" type="curve" smooth="yes"/>
			<point x="395" y="-261"/>
			<point x="381" y="-267"/>
			<point x="367" y="-277" type="curve" smooth="yes"/>
			<point x="317" y="-313"/>
			<point x="270" y="-398"/>
			<point x="270" y="-484" type="curve" smooth="yes"/>
			<point x="270" y="-593"/>
			<point x="344" y="-685"/>
			<point x="499" y="-685" type="curve" smooth="yes"/>
			<point x="664" y="-685"/>
			<point x="784" y="-582"/>
			<point x="784" y="-240" type="curve" smooth="yes"/>
			<point x="784" y="-19"/>
			<point x="734" y="241"/>
			<point x="664" y="632" type="curve" smooth="yes"/>
			<point x="616" y="900"/>
			<point x="580" y="1114"/>
			<point x="580" y="1275" type="curve" smooth="yes"/>
			<point x="580" y="1485"/>
			<point x="641" y="1555"/>
			<point x="715" y="1555" type="curve" smooth="yes"/>
			<point x="776" y="1555"/>
			<point x="816" y="1506"/>
			<point x="816" y="1396" type="curve" smooth="yes"/>
			<point x="816" y="1237"/>
			<point x="733" y="1123"/>
			<point x="544" y="946" type="curve" smooth="yes"/>
			<point x="406" y="817"/>
			<point x="191" y="634"/>
			<point x="191" y="346" type="curve" smooth="yes"/>
			<point x="191" y="68"/>
			<point x="391" y="-75"/>
			<point x="608" y="-75" type="curve" smooth="yes"/>
			<point x="840" y="-75"/>
			<point x="1031" y="88"/>
			<point x="1031" y="326" type="curve" smooth="yes"/>
			<point x="1031" y="530"/>
			<point x="890" y="659"/>
			<point x="709" y="659" type="curve" smooth="yes"/>
			<point x="523" y="659"/>
			<point x="398" y="522"/>
			<point x="398" y="368" type="curve" smooth="yes"/>
			<point x="398" y="233"/>
			<point x="495" y="155"/>
			<point x="548" y="155" type="curve" smooth="yes"/>
			<point x="568" y="155"/>
			<point x="578" y="166"/>
			<point x="578" y="180" type="curve" smooth="yes"/>
			<point x="578" y="191"/>
			<point x="571" y="201"/>
			<point x="550" y="210" type="curve" smooth="yes"/>
			<point x="500" y="232"/>
			<point x="468" y="282"/>
			<point x="468" y="358" type="curve" smooth="yes"/>
			<point x="468" y="482"/>
			<point x="554" y="589"/>
			<point x="706" y="589" type="curve" smooth="yes"/>
			<point x="848" y="589"/>
			<point x="953" y="495"/>
			<point x="953" y="323" type="curve" smooth="yes"/>
			<point x="953" y="153"/>
			<point x="850" y="-5"/>
			<point x="618" y="-5" type="curve" smooth="yes"/>
			<point x="415" y="-5"/>
			<point x="269" y="117"/>
			<point x="269" y="355" type="curve" smooth="yes"/>
			<point x="269" y="611"/>
			<point x="439" y="752"/>
			<point x="585" y="889" type="curve" smooth="yes"/>
			<point x="784" y="1076"/>
			<point x="892" y="1214"/>
			<point x="892" y="1403" type="curve" smooth="yes"/>
			<point x="892" y="1551"/>
			<point x="826" y="1625"/>
			<point x="715" y="1625" type="curve" smooth="yes"/>
			<point x="584" y="1625"/>
			<point x="505" y="1521"/>
			<point x="505" y="1266" type="curve" smooth="yes"/>
			<point x="505" y="1080"/>
			<point x="547" y="851"/>
			<point x="591" y="614" type="curve" smooth="yes"/>
			<point x="640" y="350"/>
			<point x="708" y="-5"/>
			<point x="708" y="-257" type="curve" smooth="yes"/>
			<point x="708" y="-546"/>
			<point x="618" y="-615"/>
			<point x="499" y="-615" type="curve" smooth="yes"/>
			<point x="400" y="-615"/>
			<point x="340" y="-568"/>
			<point x="340" y="-479" type="curve" smooth="yes"/>
			<point x="340" y="-414"/>
			<point x="372" y="-366"/>
			<point x="406" y="-326" type="curve" smooth="yes"/>
			<point x="418" y="-312"/>
			<point x="430" y="-299"/>
			<point x="430" y="-285" type="curve" smooth="yes"/>
			<point x="430" y="-271"/>
			<point x="419" y="-261"/>
		</contour>
	</outline>
</glyph>
<glyph name="B_r_a_v_o_exclam_exclam_exclam" format="2">
	<advance width="6481"/>
	<outline>
		<contour>
			<point x="386" y="-12" type="curve" smooth="yes"/>
			<point x="793" y="-12"/>
			<point x="1016" y="193"/>
			<point x="1016" y="469" type="curve" smooth="yes"/>
			<point x="1016" y="666"/>
			<point x="878" y="796"/>
			<point x="670" y="833" type="curve"/>
			<point x="671" y="819" type="line"/>
			<point x="872" y="861"/>
			<point x="1039" y="1002"/>
			<point x="1039" y="1229" type="curve" smooth="yes"/>
			<point x="1039" y="1459"/>
			<point x="862" y="1612"/>
			<point x="560" y="1612" type="curve" smooth="yes"/>
			<point x="466" y="1612"/>
			<point x="358" y="1607"/>
			<point x="319" y="1603" type="curve" smooth="yes"/>
			<point x="275" y="1598"/>
			<point x="256" y="1583"/>
			<point x="253" y="1537" type="curve" smooth="yes"/>
			<point x="154" y="119" type="line" smooth="yes"/>
			<point x="150" y="60"/>
			<point x="150" y="48"/>
			<point x="150" y="38" type="curve" smooth="yes"/>
			<point x="150" y="1"/>
			<point x="187" y="-12"/>
		</contour>
		<contour>
			<point x="399" y="66" type="curve" smooth="yes"/>
			<point x="340" y="66"/>
			<point x="290" y="68"/>
			<point x="236" y="71" type="curve"/>
			<point x="337" y="1527" type="line"/>
			<point x="372" y="1530"/>
			<point x="479" y="1534"/>
			<point x="550" y="1534" type="curve" smooth="yes"/>
			<point x="811" y="1534"/>
			<point x="959" y="1412"/>
			<point x="959" y="1218" type="curve" smooth="yes"/>
			<point x="959" y="1024"/>
			<point x="786" y="864"/>
			<point x="475" y="864" type="curve" smooth="yes"/>
			<point x="260" y="864" type="line"/>
			<point x="255" y="786" type="line"/>
			<point x="468" y="786" type="line" smooth="yes"/>
			<point x="750" y="786"/>
			<point x="936" y="668"/>
			<point x="936" y="451" type="curve" smooth="yes"/>
			<point x="936" y="240"/>
			<point x="746" y="66"/>
		</contour>
		<contour>
			<point x="1323" y="249" type="curve" smooth="yes"/>
			<point x="1348" y="249"/>
			<point x="1366" y="262"/>
			<point x="1368" y="294" type="curve" smooth="yes"/>
			<point x="1373" y="405" type="line"/>
			<point x="1425" y="802"/>
			<point x="1585" y="1118"/>
			<point x="1712" y="1118" type="curve" smooth="yes"/>
			<point x="1757" y="1118"/>
			<point x="1781" y="1084"/>
			<point x="1790" y="1001" type="curve" smooth="yes"/>
			<point x="1794" y="965"/>
			<point x="1806" y="948"/>
			<point x="1834" y="948" type="curve" smooth="yes"/>
			<point x="1859" y="948"/>
			<point x="1874" y="972"/>
			<point x="1874" y="1011" type="curve" smooth="yes"/>
			<point x="1874" y="1120"/>
			<point x="1822" y="1196"/>
			<point x="1729" y="1196" type="curve" smooth="yes"/>
			<point x="1595" y="1196"/>
			<point x="1489" y="1074"/>
			<point x="1383" y="709" type="curve"/>
			<point x="1391" y="715" type="line"/>
			<point x="1418" y="1060" type="line" smooth="yes"/>
			<point x="1422" y="1111"/>
			<point x="1424" y="1137"/>
			<point x="1424" y="1152" type="curve" smooth="yes"/>
			<point x="1424" y="1183"/>
			<point x="1412" y="1196"/>
			<point x="1383" y="1196" type="curve" smooth="yes"/>
			<point x="1359" y="1196"/>
			<point x="1341" y="1187"/>
			<point x="1338" y="1142" type="curve" smooth="yes"/>
			<point x="1283" y="296" type="line" smooth="yes"/>
			<point x="1283" y="294"/>
			<point x="1283" y="292"/>
			<point x="1283" y="290" type="curve" smooth="yes"/>
			<point x="1283" y="262"/>
			<point x="1297" y="249"/>
		</contour>
		<contour>
			<point x="2105" y="-21" type="curve" smooth="yes"/>
			<point x="2285" y="-21"/>
			<point x="2472" y="205"/>
			<point x="2612" y="682" type="curve"/>
			<point x="2566" y="730" type="line"/>
			<point x="2451" y="341"/>
			<point x="2260" y="57"/>
			<point x="2127" y="57" type="curve" smooth="yes"/>
			<point x="2034" y="57"/>
			<point x="1987" y="148"/>
			<point x="1987" y="323" type="curve" smooth="yes"/>
			<point x="1987" y="645"/>
			<point x="2135" y="848"/>
			<point x="2329" y="848" type="curve" smooth="yes"/>
			<point x="2416" y="848"/>
			<point x="2482" y="825"/>
			<point x="2575" y="759" type="curve"/>
			<point x="2580" y="835" type="line"/>
			<point x="2496" y="898"/>
			<point x="2411" y="926"/>
			<point x="2325" y="926" type="curve" smooth="yes"/>
			<point x="2080" y="926"/>
			<point x="1902" y="691"/>
			<point x="1902" y="319" type="curve" smooth="yes"/>
			<point x="1902" y="99"/>
			<point x="1976" y="-21"/>
		</contour>
		<contour>
			<point x="2552" y="-21" type="curve" smooth="yes"/>
			<point x="2577" y="-21"/>
			<point x="2595" y="-8"/>
			<point x="2597" y="24" type="curve" smooth="yes"/>
			<point x="2650" y="834" type="line" smooth="yes"/>
			<point x="2652" y="857"/>
			<point x="2653" y="870"/>
			<point x="2653" y="882" type="curve" smooth="yes"/>
			<point x="2653" y="913"/>
			<point x="2641" y="926"/>
			<point x="2612" y="926" type="curve" smooth="yes"/>
			<point x="2588" y="926"/>
			<point x="2570" y="917"/>
			<point x="2567" y="872" type="curve" smooth="yes"/>
			<point x="2513" y="40" type="line" smooth="yes"/>
			<point x="2512" y="28"/>
			<point x="2512" y="26"/>
			<point x="2512" y="18" type="curve" smooth="yes"/>
			<point x="2512" y="-8"/>
			<point x="2526" y="-21"/>
		</contour>
		<contour>
			<point x="3120" y="382" type="curve" smooth="yes"/>
			<point x="3164" y="382"/>
			<point x="3182" y="395"/>
			<point x="3205" y="448" type="curve" smooth="yes"/>
			<point x="3550" y="1243" type="line" smooth="yes"/>
			<point x="3562" y="1271"/>
			<point x="3564" y="1280"/>
			<point x="3564" y="1291" type="curve" smooth="yes"/>
			<point x="3564" y="1317"/>
			<point x="3543" y="1329"/>
			<point x="3522" y="1329" type="curve" smooth="yes"/>
			<point x="3504" y="1329"/>
			<point x="3492" y="1320"/>
			<point x="3478" y="1286" type="curve" smooth="yes"/>
			<point x="3174" y="572" type="line"/>
			<point x="3122" y="436" type="line"/>
			<point x="3145" y="435" type="line"/>
			<point x="3111" y="570" type="line"/>
			<point x="2931" y="1285" type="line" smooth="yes"/>
			<point x="2922" y="1319"/>
			<point x="2909" y="1329"/>
			<point x="2891" y="1329" type="curve" smooth="yes"/>
			<point x="2868" y="1329"/>
			<point x="2842" y="1317"/>
			<point x="2842" y="1287" type="curve" smooth="yes"/>
			<point x="2842" y="1278"/>
			<point x="2844" y="1268"/>
			<point x="2850" y="1245" type="curve" smooth="yes"/>
			<point x="3060" y="437" type="line" smooth="yes"/>
			<point x="3070" y="397"/>
			<point x="3089" y="382"/>
		</contour>
		<contour>
			<point x="3956" y="-12" type="curve" smooth="yes"/>
			<point x="4198" y="-12"/>
			<point x="4386" y="218"/>
			<point x="4386" y="528" type="curve" smooth="yes"/>
			<point x="4386" y="794"/>
			<point x="4261" y="935"/>
			<point x="4051" y="935" type="curve" smooth="yes"/>
			<point x="3803" y="935"/>
			<point x="3621" y="705"/>
			<point x="3621" y="395" type="curve" smooth="yes"/>
			<point x="3621" y="129"/>
			<point x="3746" y="-12"/>
		</contour>
		<contour>
			<point x="3956" y="66" type="curve" smooth="yes"/>
			<point x="3804" y="66"/>
			<point x="3706" y="176"/>
			<point x="3706" y="406" type="curve" smooth="yes"/>
			<point x="3706" y="656"/>
			<point x="3855" y="857"/>
			<point x="4051" y="857" type="curve" smooth="yes"/>
			<point x="4203" y="857"/>
			<point x="4301" y="747"/>
			<point x="4301" y="517" type="curve" smooth="yes"/>
			<point x="4301" y="267"/>
			<point x="4155" y="66"/>
		</contour>
		<contour>
			<point x="4861" y="174" type="curve" smooth="yes"/>
			<point x="4879" y="174"/>
			<point x="4895" y="181"/>
			<point x="4904" y="226" type="curve"/>
			<point x="4996" y="566"/>
			<point x="5174" y="1171"/>
			<point x="5277" y="1498" type="curve"/>
			<point x="5293" y="1537"/>
			<point x="5303" y="1570"/>
			<point x="5303" y="1576" type="curve" smooth="yes"/>
			<point x="5303" y="1598"/>
			<point x="5277" y="1618"/>
			<point x="5255" y="1618" type="curve" smooth="yes"/>
			<point x="5234" y="1618"/>
			<point x="5220" y="1602"/>
			<point x="5212" y="1581" type="curve" smooth="yes"/>
			<point x="5079" y="1181"/>
			<point x="4915" y="592"/>
			<point x="4848" y="328" type="curve" smooth="yes"/>
			<point x="4823" y="235"/>
			<point x="4823" y="223"/>
			<point x="4823" y="210" type="curve" smooth="yes"/>
			<point x="4823" y="190"/>
			<point x="4836" y="174"/>
		</contour>
		<contour>
			<point x="4752" y="-314" type="curve" smooth="yes"/>
			<point x="4816" y="-314"/>
			<point x="4872" y="-254"/>
			<point x="4872" y="-182" type="curve" smooth="yes"/>
			<point x="4872" y="-140"/>
			<point x="4834" y="-107"/>
			<point x="4790" y="-107" type="curve" smooth="yes"/>
			<point x="4731" y="-107"/>
			<point x="4677" y="-160"/>
			<point x="4677" y="-227" type="curve" smooth="yes"/>
			<point x="4677" y="-280"/>
			<point x="4713" y="-314"/>
		</contour>
		<contour>
			<point x="5223" y="-201" type="curve" smooth="yes"/>
			<point x="5244" y="-201"/>
			<point x="5260" y="-193"/>
			<point x="5269" y="-147" type="curve"/>
			<point x="5357" y="192"/>
			<point x="5534" y="796"/>
			<point x="5643" y="1123" type="curve" smooth="yes"/>
			<point x="5656" y="1159"/>
			<point x="5665" y="1190"/>
			<point x="5665" y="1201" type="curve" smooth="yes"/>
			<point x="5665" y="1223"/>
			<point x="5643" y="1239"/>
			<point x="5620" y="1239" type="curve" smooth="yes"/>
			<point x="5598" y="1239"/>
			<point x="5583" y="1223"/>
			<point x="5576" y="1205" type="curve" smooth="yes"/>
			<point x="5444" y="803"/>
			<point x="5279" y="217"/>
			<point x="5212" y="-45" type="curve" smooth="yes"/>
			<point x="5186" y="-142"/>
			<point x="5186" y="-152"/>
			<point x="5186" y="-166" type="curve" smooth="yes"/>
			<point x="5186" y="-187"/>
			<point x="5199" y="-201"/>
		</contour>
		<contour>
			<point x="5116" y="-689" type="curve" smooth="yes"/>
			<point x="5179" y="-689"/>
			<point x="5237" y="-630"/>
			<point x="5237" y="-558" type="curve" smooth="yes"/>
			<point x="5237" y="-515"/>
			<point x="5197" y="-486"/>
			<point x="5151" y="-486" type="curve" smooth="yes"/>
			<point x="5095" y="-486"/>
			<point x="5038" y="-535"/>
			<point x="5038" y="-603" type="curve" smooth="yes"/>
			<point x="5038" y="-655"/>
			<point x="5077" y="-689"/>
		</contour>
		<contour>
			<point x="5887" y="377" type="curve" smooth="yes"/>
			<point x="5907" y="377"/>
			<point x="5924" y="385"/>
			<point x="5936" y="430" type="curve" smooth="yes"/>
			<point x="6025" y="768"/>
			<point x="6201" y="1374"/>
			<point x="6309" y="1702" type="curve" smooth="yes"/>
			<point x="6321" y="1739"/>
			<point x="6331" y="1771"/>
			<point x="6331" y="1779" type="curve" smooth="yes"/>
			<point x="6331" y="1802"/>
			<point x="6309" y="1819"/>
			<point x="6284" y="1819" type="curve" smooth="yes"/>
			<point x="6263" y="1819"/>
			<point x="6249" y="1803"/>
			<point x="6243" y="1784" type="curve" smooth="yes"/>
			<point x="6108" y="1382"/>
			<point x="5946" y="795"/>
			<point x="5876" y="532" type="curve" smooth="yes"/>
			<point x="5852" y="437"/>
			<point x="5852" y="425"/>
			<point x="5852" y="414" type="curve" smooth="yes"/>
			<point x="5852" y="391"/>
			<point x="5864" y="377"/>
		</contour>
		<contour>
			<point x="5780" y="-112" type="curve" smooth="yes"/>
			<point x="5841" y="-112"/>
			<point x="5901" y="-51"/>
			<point x="5901" y="19" type="curve" smooth="yes"/>
			<point x="5901" y="63"/>
			<point x="5862" y="96"/>
			<point x="5820" y="96" type="curve" smooth="yes"/>
			<point x="5759" y="96"/>
			<point x="5706" y="43"/>
			<point x="5706" y="-24" type="curve" smooth="yes"/>
			<point x="5706" y="-79"/>
			<point x="5742" y="-112"/>
		</contour>
	</outline>
</glyph>
<glyph name="Uogonek.ss05" format="2">
	<advance width="1279"/>
	<outline>
		<contour>
			<point x="582" y="-386" type="curve" smooth="yes"/>
			<point x="655" y="-386"/>
			<point x="710" y="-354"/>
			<point x="750" y="-315" type="curve" smooth="yes"/>
			<point x="768" y="-298"/>
			<point x="772" y="-287"/>
			<point x="772" y="-280" type="curve" smooth="yes"/>
			<point x="772" y="-263"/>
			<point x="758" y="-249"/>
			<point x="745" y="-249" type="curve" smooth="yes"/>
			<point x="735" y="-249"/>
			<point x="728" y="-253"/>
			<point x="711" y="-265" type="curve" smooth="yes"/>
			<point x="674" y="-291"/>
			<point x="634" y="-309"/>
			<point x="597" y="-309" type="curve" smooth="yes"/>
			<point x="554" y="-309"/>
			<point x="528" y="-289"/>
			<point x="528" y="-235" type="curve" smooth="yes"/>
			<point x="528" y="-130"/>
			<point x="598" y="-36"/>
			<point x="752" y="15" type="curve" smooth="yes"/>
			<point x="908" y="67"/>
			<point x="1067" y="199"/>
			<point x="1094" y="563" type="curve" smooth="yes"/>
			<point x="1166" y="1517" type="line" smooth="yes"/>
			<point x="1167" y="1530"/>
			<point x="1168" y="1544"/>
			<point x="1169" y="1557" type="curve" smooth="yes"/>
			<point x="1170" y="1588"/>
			<point x="1155" y="1600"/>
			<point x="1128" y="1600" type="curve" smooth="yes"/>
			<point x="1101" y="1600"/>
			<point x="1087" y="1585"/>
			<point x="1085" y="1556" type="curve" smooth="yes"/>
			<point x="1012" y="591" type="line" smooth="yes"/>
			<point x="984" y="215"/>
			<point x="830" y="66"/>
			<point x="593" y="66" type="curve" smooth="yes"/>
			<point x="371" y="66"/>
			<point x="251" y="182"/>
			<point x="251" y="449" type="curve" smooth="yes"/>
			<point x="251" y="531"/>
			<point x="256" y="585"/>
			<point x="264" y="685" type="curve" smooth="yes"/>
			<point x="328" y="1489" type="line" smooth="yes"/>
			<point x="330" y="1514"/>
			<point x="334" y="1539"/>
			<point x="334" y="1564" type="curve" smooth="yes"/>
			<point x="334" y="1587"/>
			<point x="325" y="1600"/>
			<point x="296" y="1600" type="curve" smooth="yes"/>
			<point x="265" y="1600"/>
			<point x="251" y="1587"/>
			<point x="248" y="1545" type="curve" smooth="yes"/>
			<point x="183" y="718" type="line" smooth="yes"/>
			<point x="174" y="598"/>
			<point x="170" y="527"/>
			<point x="170" y="438" type="curve" smooth="yes"/>
			<point x="170" y="143"/>
			<point x="322" y="-16"/>
			<point x="593" y="-12" type="curve"/>
			<point x="602" y="13" type="line"/>
			<point x="477" y="-84"/>
			<point x="448" y="-179"/>
			<point x="448" y="-250" type="curve" smooth="yes"/>
			<point x="448" y="-334"/>
			<point x="509" y="-386"/>
		</contour>
	</outline>
</glyph>
<glyph name="aogonek.ss04" format="2">
	<advance width="973"/>
	<outline>
		<contour>
			<point x="707" y="245" type="curve"/>
			<point x="713" y="350" type="line"/>
			<point x="643" y="444"/>
			<point x="506" y="537"/>
			<point x="373" y="537" type="curve" smooth="yes"/>
			<point x="216" y="537"/>
			<point x="115" y="393"/>
			<point x="115" y="247" type="curve" smooth="yes"/>
			<point x="115" y="94"/>
			<point x="212" y="-13"/>
			<point x="369" y="-13" type="curve" smooth="yes"/>
			<point x="485" y="-13"/>
			<point x="598" y="42"/>
			<point x="747" y="170" type="curve"/>
			<point x="715" y="214" type="line"/>
			<point x="580" y="105"/>
			<point x="472" y="67"/>
			<point x="383" y="67" type="curve" smooth="yes"/>
			<point x="261" y="67"/>
			<point x="197" y="144"/>
			<point x="197" y="259" type="curve" smooth="yes"/>
			<point x="197" y="380"/>
			<point x="282" y="461"/>
			<point x="376" y="461" type="curve" smooth="yes"/>
			<point x="482" y="461"/>
			<point x="624" y="373"/>
		</contour>
		<contour>
			<point x="776" y="200" type="curve"/>
			<point x="782" y="331"/>
			<point x="793" y="455"/>
			<point x="801" y="544" type="curve" smooth="yes"/>
			<point x="808" y="621"/>
			<point x="813" y="681"/>
			<point x="813" y="716" type="curve" smooth="yes"/>
			<point x="813" y="869"/>
			<point x="721" y="935"/>
			<point x="581" y="935" type="curve" smooth="yes"/>
			<point x="447" y="935"/>
			<point x="310" y="874"/>
			<point x="232" y="816" type="curve" smooth="yes"/>
			<point x="214" y="803"/>
			<point x="208" y="795"/>
			<point x="208" y="784" type="curve" smooth="yes"/>
			<point x="208" y="765"/>
			<point x="224" y="746"/>
			<point x="244" y="746" type="curve" smooth="yes"/>
			<point x="251" y="746"/>
			<point x="256" y="748"/>
			<point x="275" y="760" type="curve" smooth="yes"/>
			<point x="355" y="810"/>
			<point x="451" y="860"/>
			<point x="565" y="860" type="curve" smooth="yes"/>
			<point x="674" y="860"/>
			<point x="730" y="815"/>
			<point x="730" y="705" type="curve" smooth="yes"/>
			<point x="730" y="679"/>
			<point x="724" y="603"/>
			<point x="717" y="523" type="curve" smooth="yes"/>
			<point x="710" y="440"/>
			<point x="702" y="346"/>
			<point x="699" y="309" type="curve" smooth="yes"/>
			<point x="692" y="206"/>
			<point x="692" y="80"/>
			<point x="701" y="26" type="curve" smooth="yes"/>
			<point x="706" y="-5"/>
			<point x="721" y="-12"/>
			<point x="737" y="-12" type="curve" smooth="yes"/>
			<point x="764" y="-12"/>
			<point x="790" y="18"/>
			<point x="790" y="57" type="curve" smooth="yes"/>
			<point x="790" y="104"/>
			<point x="785" y="141"/>
		</contour>
		<contour>
			<point x="675" y="-386" type="curve" smooth="yes"/>
			<point x="748" y="-386"/>
			<point x="803" y="-354"/>
			<point x="843" y="-315" type="curve" smooth="yes"/>
			<point x="861" y="-298"/>
			<point x="865" y="-287"/>
			<point x="865" y="-280" type="curve" smooth="yes"/>
			<point x="865" y="-263"/>
			<point x="851" y="-249"/>
			<point x="838" y="-249" type="curve" smooth="yes"/>
			<point x="828" y="-249"/>
			<point x="821" y="-253"/>
			<point x="804" y="-265" type="curve" smooth="yes"/>
			<point x="767" y="-291"/>
			<point x="727" y="-309"/>
			<point x="690" y="-309" type="curve" smooth="yes"/>
			<point x="647" y="-309"/>
			<point x="621" y="-289"/>
			<point x="621" y="-235" type="curve" smooth="yes"/>
			<point x="621" y="-168"/>
			<point x="662" y="-86"/>
			<point x="759" y="-6" type="curve" smooth="yes"/>
			<point x="776" y="8"/>
			<point x="777" y="16"/>
			<point x="777" y="22" type="curve" smooth="yes"/>
			<point x="777" y="37"/>
			<point x="769" y="58"/>
			<point x="753" y="58" type="curve" smooth="yes"/>
			<point x="742" y="58"/>
			<point x="730" y="51"/>
			<point x="695" y="22" type="curve" smooth="yes"/>
			<point x="572" y="-78"/>
			<point x="541" y="-177"/>
			<point x="541" y="-250" type="curve" smooth="yes"/>
			<point x="541" y="-334"/>
			<point x="602" y="-386"/>
		</contour>
	</outline>
	<guideline x="813" y="716" angle="90"/>
</glyph>
<glyph name="dotbelowcomb.case" format="2">
	<outline>
		<contour>
			<point x="128" y="-312" type="curve" smooth="yes"/>
			<point x="181" y="-312"/>
			<point x="221" y="-272"/>
			<point x="221" y="-218" type="curve" smooth="yes"/>
			<point x="221" y="-178"/>
			<point x="187" y="-144"/>
			<point x="146" y="-144" type="curve" smooth="yes"/>
			<point x="92" y="-144"/>
			<point x="52" y="-183"/>
			<point x="52" y="-237" type="curve" smooth="yes"/>
			<point x="52" y="-278"/>
			<point x="86" y="-312"/>
		</contour>
	</outline>
	<anchor name="_bottom" x="146" y="0"/>
	<anchor name="bottom" x="126" y="-312"/>
</glyph>
<glyph name="f.ss01" format="2">
	<advance width="626"/>
	<outline>
		<contour>
			<point x="295" y="33" type="curve" smooth="yes"/>
			<point x="364" y="1071" type="line" smooth="yes"/>
			<point x="377" y="1260"/>
			<point x="452" y="1347"/>
			<point x="561" y="1347" type="curve" smooth="yes"/>
			<point x="602" y="1347"/>
			<point x="643" y="1334"/>
			<point x="688" y="1309" type="curve" smooth="yes"/>
			<point x="706" y="1299"/>
			<point x="715" y="1294"/>
			<point x="726" y="1294" type="curve" smooth="yes"/>
			<point x="740" y="1294"/>
			<point x="755" y="1312"/>
			<point x="755" y="1330" type="curve" smooth="yes"/>
			<point x="755" y="1360"/>
			<point x="674" y="1425"/>
			<point x="569" y="1425" type="curve" smooth="yes"/>
			<point x="412" y="1425"/>
			<point x="294" y="1314"/>
			<point x="279" y="1090" type="curve" smooth="yes"/>
			<point x="211" y="49" type="line" smooth="yes"/>
			<point x="210" y="37"/>
			<point x="210" y="35"/>
			<point x="210" y="27" type="curve" smooth="yes"/>
			<point x="210" y="1"/>
			<point x="224" y="-12"/>
			<point x="250" y="-12" type="curve" smooth="yes"/>
			<point x="275" y="-12"/>
			<point x="293" y="1"/>
		</contour>
		<contour>
			<point x="140" y="845" type="curve" smooth="yes"/>
			<point x="589" y="845" type="line" smooth="yes"/>
			<point x="615" y="845"/>
			<point x="634" y="856"/>
			<point x="634" y="886" type="curve" smooth="yes"/>
			<point x="634" y="909"/>
			<point x="620" y="920"/>
			<point x="594" y="920" type="curve" smooth="yes"/>
			<point x="145" y="920" type="line" smooth="yes"/>
			<point x="119" y="920"/>
			<point x="100" y="909"/>
			<point x="100" y="880" type="curve" smooth="yes"/>
			<point x="100" y="856"/>
			<point x="114" y="845"/>
		</contour>
	</outline>
	<guideline x="323" y="454" angle="86.1904"/>
</glyph>
<glyph name="hungarumlautcomb.case" format="2">
	<outline>
		<contour>
			<point x="73" y="1039" type="curve" smooth="yes"/>
			<point x="96" y="1039"/>
			<point x="157" y="1075"/>
			<point x="243" y="1151" type="curve" smooth="yes"/>
			<point x="315" y="1216"/>
			<point x="341" y="1252"/>
			<point x="341" y="1273" type="curve" smooth="yes"/>
			<point x="341" y="1291"/>
			<point x="321" y="1307"/>
			<point x="304" y="1307" type="curve" smooth="yes"/>
			<point x="291" y="1307"/>
			<point x="273" y="1289"/>
			<point x="210" y="1219" type="curve" smooth="yes"/>
			<point x="139" y="1142"/>
			<point x="98" y="1108"/>
			<point x="73" y="1089" type="curve" smooth="yes"/>
			<point x="57" y="1077"/>
			<point x="50" y="1068"/>
			<point x="50" y="1062" type="curve" smooth="yes"/>
			<point x="50" y="1050"/>
			<point x="60" y="1039"/>
		</contour>
		<contour>
			<point x="353" y="1039" type="curve" smooth="yes"/>
			<point x="376" y="1039"/>
			<point x="437" y="1075"/>
			<point x="523" y="1151" type="curve" smooth="yes"/>
			<point x="595" y="1216"/>
			<point x="621" y="1252"/>
			<point x="621" y="1273" type="curve" smooth="yes"/>
			<point x="621" y="1291"/>
			<point x="601" y="1307"/>
			<point x="584" y="1307" type="curve" smooth="yes"/>
			<point x="571" y="1307"/>
			<point x="553" y="1289"/>
			<point x="490" y="1219" type="curve" smooth="yes"/>
			<point x="419" y="1142"/>
			<point x="378" y="1108"/>
			<point x="353" y="1089" type="curve" smooth="yes"/>
			<point x="337" y="1077"/>
			<point x="330" y="1068"/>
			<point x="330" y="1062" type="curve" smooth="yes"/>
			<point x="330" y="1050"/>
			<point x="340" y="1039"/>
		</contour>
	</outline>
	<anchor name="_top" x="226" y="910"/>
	<anchor name="top" x="386" y="1307"/>
</glyph>
<glyph name="k.ss03" format="2">
	<advance width="1040"/>
	<outline>
		<contour>
			<point x="201" y="-12" type="curve" smooth="yes"/>
			<point x="230" y="-12"/>
			<point x="243" y="6"/>
			<point x="245" y="39" type="curve" smooth="yes"/>
			<point x="250" y="118" type="line" smooth="yes"/>
			<point x="255" y="195"/>
			<point x="269" y="303"/>
			<point x="322" y="444" type="curve" smooth="yes"/>
			<point x="428" y="725"/>
			<point x="596" y="860"/>
			<point x="710" y="860" type="curve" smooth="yes"/>
			<point x="770" y="860"/>
			<point x="807" y="819"/>
			<point x="807" y="753" type="curve" smooth="yes"/>
			<point x="807" y="635"/>
			<point x="688" y="529"/>
			<point x="494" y="476" type="curve" smooth="yes"/>
			<point x="463" y="468"/>
			<point x="448" y="450"/>
			<point x="448" y="428" type="curve" smooth="yes"/>
			<point x="448" y="408"/>
			<point x="460" y="395"/>
			<point x="483" y="371" type="curve" smooth="yes"/>
			<point x="834" y="13" type="line" smooth="yes"/>
			<point x="851" y="-4"/>
			<point x="862" y="-12"/>
			<point x="878" y="-12" type="curve" smooth="yes"/>
			<point x="902" y="-12"/>
			<point x="920" y="6"/>
			<point x="920" y="31" type="curve" smooth="yes"/>
			<point x="920" y="47"/>
			<point x="912" y="59"/>
			<point x="892" y="79" type="curve" smooth="yes"/>
			<point x="519" y="447" type="line"/>
			<point x="513" y="411" type="line"/>
			<point x="753" y="472"/>
			<point x="887" y="610"/>
			<point x="887" y="764" type="curve" smooth="yes"/>
			<point x="887" y="876"/>
			<point x="817" y="935"/>
			<point x="717" y="935" type="curve" smooth="yes"/>
			<point x="541" y="935"/>
			<point x="359" y="755"/>
			<point x="257" y="455" type="curve"/>
			<point x="267" y="449" type="line"/>
			<point x="326" y="1300" type="line" smooth="yes"/>
			<point x="328" y="1330"/>
			<point x="329" y="1346"/>
			<point x="329" y="1356" type="curve" smooth="yes"/>
			<point x="329" y="1387"/>
			<point x="317" y="1400"/>
			<point x="288" y="1400" type="curve" smooth="yes"/>
			<point x="264" y="1400"/>
			<point x="246" y="1391"/>
			<point x="243" y="1346" type="curve" smooth="yes"/>
			<point x="161" y="57" type="line" smooth="yes"/>
			<point x="160" y="39"/>
			<point x="160" y="34"/>
			<point x="160" y="27" type="curve" smooth="yes"/>
			<point x="160" y="3"/>
			<point x="174" y="-12"/>
		</contour>
	</outline>
	<anchor name="bottom" x="520" y="0"/>
	<anchor name="top" x="288" y="1400"/>
</glyph>
<glyph name="macroncomb.case" format="2">
	<outline>
		<contour>
			<point x="298" y="1103" type="curve" smooth="yes"/>
			<point x="427" y="1103"/>
			<point x="519" y="1110"/>
			<point x="555" y="1121" type="curve" smooth="yes"/>
			<point x="576" y="1127"/>
			<point x="586" y="1138"/>
			<point x="586" y="1163" type="curve" smooth="yes"/>
			<point x="586" y="1174"/>
			<point x="577" y="1189"/>
			<point x="555" y="1189" type="curve" smooth="yes"/>
			<point x="527" y="1189"/>
			<point x="409" y="1181"/>
			<point x="314" y="1181" type="curve" smooth="yes"/>
			<point x="230" y="1181"/>
			<point x="106" y="1187"/>
			<point x="87" y="1187" type="curve" smooth="yes"/>
			<point x="60" y="1187"/>
			<point x="50" y="1172"/>
			<point x="50" y="1151" type="curve" smooth="yes"/>
			<point x="50" y="1128"/>
			<point x="62" y="1117"/>
			<point x="88" y="1113" type="curve" smooth="yes"/>
			<point x="119" y="1108"/>
			<point x="212" y="1103"/>
		</contour>
	</outline>
	<anchor name="_top" x="291" y="910"/>
	<anchor name="top" x="304" y="1179"/>
</glyph>
<glyph name="one.tf" format="2">
	<advance width="1200"/>
	<outline>
		<contour>
			<point x="582" y="31" type="line"/>
			<point x="666" y="31" type="line"/>
			<point x="764" y="1518" type="line" smooth="yes"/>
			<point x="765" y="1537"/>
			<point x="767" y="1558"/>
			<point x="767" y="1573" type="curve" smooth="yes"/>
			<point x="767" y="1591"/>
			<point x="749" y="1609"/>
			<point x="724" y="1609" type="curve" smooth="yes"/>
			<point x="710" y="1609"/>
			<point x="701" y="1603"/>
			<point x="663" y="1576" type="curve" smooth="yes"/>
			<point x="577" y="1514"/>
			<point x="414" y="1402"/>
			<point x="236" y="1289" type="curve" smooth="yes"/>
			<point x="215" y="1276"/>
			<point x="210" y="1266"/>
			<point x="210" y="1253" type="curve" smooth="yes"/>
			<point x="210" y="1231"/>
			<point x="230" y="1211"/>
			<point x="248" y="1211" type="curve" smooth="yes"/>
			<point x="260" y="1211"/>
			<point x="270" y="1215"/>
			<point x="289" y="1227" type="curve" smooth="yes"/>
			<point x="450" y="1327"/>
			<point x="591" y="1423"/>
			<point x="694" y="1497" type="curve"/>
			<point x="681" y="1523" type="line"/>
		</contour>
		<contour>
			<point x="236" y="0" type="curve" smooth="yes"/>
			<point x="998" y="0" type="line" smooth="yes"/>
			<point x="1037" y="0"/>
			<point x="1049" y="19"/>
			<point x="1049" y="43" type="curve" smooth="yes"/>
			<point x="1049" y="70"/>
			<point x="1032" y="80"/>
			<point x="1005" y="80" type="curve" smooth="yes"/>
			<point x="242" y="80" type="line" smooth="yes"/>
			<point x="207" y="80"/>
			<point x="193" y="61"/>
			<point x="193" y="36" type="curve" smooth="yes"/>
			<point x="193" y="12"/>
			<point x="208" y="0"/>
		</contour>
	</outline>
</glyph>
<glyph name="q.ss02" format="2">
	<advance width="1040"/>
	<outline>
		<contour>
			<point x="840" y="691" type="curve"/>
			<point x="794" y="739" type="line"/>
			<point x="679" y="350"/>
			<point x="487" y="66"/>
			<point x="355" y="66" type="curve" smooth="yes"/>
			<point x="262" y="66"/>
			<point x="215" y="157"/>
			<point x="215" y="332" type="curve" smooth="yes"/>
			<point x="215" y="654"/>
			<point x="363" y="857"/>
			<point x="557" y="857" type="curve" smooth="yes"/>
			<point x="644" y="857"/>
			<point x="710" y="834"/>
			<point x="803" y="768" type="curve"/>
			<point x="808" y="844" type="line"/>
			<point x="724" y="907"/>
			<point x="639" y="935"/>
			<point x="553" y="935" type="curve" smooth="yes"/>
			<point x="308" y="935"/>
			<point x="130" y="700"/>
			<point x="130" y="328" type="curve" smooth="yes"/>
			<point x="130" y="108"/>
			<point x="204" y="-12"/>
			<point x="333" y="-12" type="curve" smooth="yes"/>
			<point x="513" y="-12"/>
			<point x="700" y="214"/>
		</contour>
		<contour>
			<point x="795" y="881" type="curve" smooth="yes"/>
			<point x="711" y="-409" type="line" smooth="yes"/>
			<point x="710" y="-421"/>
			<point x="710" y="-426"/>
			<point x="710" y="-431" type="curve" smooth="yes"/>
			<point x="710" y="-455"/>
			<point x="726" y="-470"/>
			<point x="747" y="-470" type="curve" smooth="yes"/>
			<point x="757" y="-470"/>
			<point x="768" y="-468"/>
			<point x="798" y="-460" type="curve" smooth="yes"/>
			<point x="837" y="-450"/>
			<point x="928" y="-429"/>
			<point x="1008" y="-417" type="curve" smooth="yes"/>
			<point x="1040" y="-412"/>
			<point x="1052" y="-400"/>
			<point x="1052" y="-375" type="curve" smooth="yes"/>
			<point x="1052" y="-355"/>
			<point x="1040" y="-345"/>
			<point x="1012" y="-345" type="curve" smooth="yes"/>
			<point x="978" y="-345"/>
			<point x="882" y="-361"/>
			<point x="797" y="-383" type="curve"/>
			<point x="880" y="859" type="line" smooth="yes"/>
			<point x="881" y="879"/>
			<point x="881" y="882"/>
			<point x="881" y="891" type="curve" smooth="yes"/>
			<point x="881" y="922"/>
			<point x="869" y="935"/>
			<point x="840" y="935" type="curve" smooth="yes"/>
			<point x="816" y="935"/>
			<point x="798" y="926"/>
		</contour>
	</outline>
</glyph>
<glyph name="thumbsup_semibold" format="2">
	<advance width="2443"/>
	<outline>
		<contour>
			<point x="2012" y="489" type="curve" smooth="yes"/>
			<point x="1891" y="489"/>
			<point x="1849" y="470"/>
			<point x="1811" y="449" type="curve"/>
			<point x="1764" y="459"/>
			<point x="1722" y="463"/>
			<point x="1685" y="463" type="curve" smooth="yes"/>
			<point x="1494" y="463"/>
			<point x="1425" y="352"/>
			<point x="1415" y="322" type="curve" smooth="yes"/>
			<point x="1412" y="313"/>
			<point x="1411" y="304"/>
			<point x="1411" y="294" type="curve" smooth="yes"/>
			<point x="1411" y="280"/>
			<point x="1414" y="266"/>
			<point x="1419" y="252" type="curve"/>
			<point x="1385" y="222"/>
			<point x="1372" y="195"/>
			<point x="1370" y="150" type="curve"/>
			<point x="1308" y="127"/>
			<point x="1273" y="84"/>
			<point x="1273" y="16" type="curve" smooth="yes"/>
			<point x="1273" y="-42"/>
			<point x="1303" y="-102"/>
			<point x="1335" y="-151" type="curve"/>
			<point x="1317" y="-172"/>
			<point x="1301" y="-226"/>
			<point x="1301" y="-281" type="curve" smooth="yes"/>
			<point x="1301" y="-310"/>
			<point x="1306" y="-339"/>
			<point x="1316" y="-363" type="curve"/>
			<point x="1306" y="-366"/>
			<point x="1293" y="-368"/>
			<point x="1278" y="-368" type="curve" smooth="yes"/>
			<point x="1165" y="-368"/>
			<point x="1024" y="-247"/>
			<point x="930" y="-139" type="curve"/>
			<point x="929" y="-126"/>
			<point x="929" y="-115"/>
			<point x="929" y="-103" type="curve" smooth="yes"/>
			<point x="929" y="-76"/>
			<point x="931" y="-50"/>
			<point x="938" y="-29" type="curve"/>
			<point x="984" y="-65"/>
			<point x="1062" y="-72"/>
			<point x="1100" y="-72" type="curve" smooth="yes"/>
			<point x="1169" y="-72"/>
			<point x="1248" y="20"/>
			<point x="1248" y="47" type="curve" smooth="yes"/>
			<point x="1248" y="82"/>
			<point x="1193" y="84"/>
			<point x="1124" y="84" type="curve" smooth="yes"/>
			<point x="1043" y="84"/>
			<point x="1029" y="99"/>
			<point x="978" y="159" type="curve" smooth="yes"/>
			<point x="954" y="187"/>
			<point x="922" y="255"/>
			<point x="912" y="288" type="curve"/>
			<point x="918" y="290" type="line" smooth="yes"/>
			<point x="992" y="315"/>
			<point x="1130" y="396"/>
			<point x="1177" y="464" type="curve" smooth="yes"/>
			<point x="1316" y="665"/>
			<point x="1457" y="968"/>
			<point x="1457" y="1173" type="curve" smooth="yes"/>
			<point x="1457" y="1198"/>
			<point x="1475" y="1247"/>
			<point x="1490" y="1285" type="curve" smooth="yes"/>
			<point x="1519" y="1359"/>
			<point x="1442" y="1589"/>
			<point x="1496" y="1589" type="curve" smooth="yes"/>
			<point x="1527" y="1589"/>
			<point x="1579" y="1523"/>
			<point x="1587" y="1442" type="curve" smooth="yes"/>
			<point x="1593" y="1389"/>
			<point x="1595" y="1349"/>
			<point x="1595" y="1317" type="curve" smooth="yes"/>
			<point x="1595" y="1247"/>
			<point x="1586" y="1218"/>
			<point x="1576" y="1198" type="curve" smooth="yes"/>
			<point x="1570" y="1186"/>
			<point x="1566" y="1173"/>
			<point x="1565" y="1155" type="curve" smooth="yes"/>
			<point x="1565" y="1093"/>
			<point x="1533" y="928"/>
			<point x="1543" y="867" type="curve" smooth="yes"/>
			<point x="1552" y="814"/>
			<point x="1574" y="686"/>
			<point x="1633" y="651" type="curve"/>
			<point x="1775" y="627" type="line" smooth="yes"/>
			<point x="1928" y="601"/>
			<point x="2064" y="599"/>
			<point x="2114" y="407" type="curve" smooth="yes"/>
			<point x="2120" y="384"/>
			<point x="2137" y="367"/>
			<point x="2138" y="366" type="curve" smooth="yes"/>
			<point x="2170" y="334"/>
			<point x="2179" y="292"/>
			<point x="2179" y="259" type="curve" smooth="yes"/>
			<point x="2179" y="242"/>
			<point x="2170" y="241"/>
			<point x="2169" y="241" type="curve"/>
			<point x="2128" y="228"/>
			<point x="1941" y="213"/>
			<point x="1869" y="213" type="curve" smooth="yes"/>
			<point x="1808" y="214"/>
			<point x="1730" y="261"/>
			<point x="1683" y="274" type="curve"/>
			<point x="1624" y="281"/>
			<point x="1540" y="317"/>
			<point x="1540" y="322" type="curve" smooth="yes"/>
			<point x="1540" y="334"/>
			<point x="1551" y="338"/>
			<point x="1575" y="338" type="curve" smooth="yes"/>
			<point x="1680" y="331"/>
			<point x="1750" y="324"/>
			<point x="1854" y="293" type="curve"/>
			<point x="1865" y="336"/>
			<point x="1926" y="351"/>
			<point x="1973" y="353" type="curve" smooth="yes"/>
			<point x="2062" y="356"/>
			<point x="2082" y="373"/>
			<point x="2082" y="419" type="curve" smooth="yes"/>
			<point x="2082" y="452"/>
			<point x="2053" y="489"/>
		</contour>
		<contour>
			<point x="1591" y="-387" type="curve" smooth="yes"/>
			<point x="1572" y="-369" type="line"/>
			<point x="1557" y="-357" type="line"/>
			<point x="1580" y="-366" type="line" smooth="yes"/>
			<point x="1626" y="-383"/>
			<point x="1665" y="-406"/>
			<point x="1701" y="-430" type="curve" smooth="yes"/>
			<point x="1726" y="-447"/>
			<point x="1757" y="-456"/>
			<point x="1786" y="-462" type="curve"/>
			<point x="1772" y="-467"/>
			<point x="1755" y="-471"/>
			<point x="1735" y="-473" type="curve"/>
			<point x="1681" y="-473"/>
			<point x="1629" y="-424"/>
		</contour>
		<contour>
			<point x="150" y="-589" type="curve" smooth="yes"/>
			<point x="150" y="-624"/>
			<point x="176" y="-656"/>
			<point x="205" y="-656" type="curve" smooth="yes"/>
			<point x="267" y="-656"/>
			<point x="891" y="-471"/>
			<point x="936" y="-454" type="curve"/>
			<point x="1038" y="-521"/>
			<point x="1147" y="-541"/>
			<point x="1265" y="-541" type="curve" smooth="yes"/>
			<point x="1342" y="-541"/>
			<point x="1422" y="-533"/>
			<point x="1506" y="-524" type="curve"/>
			<point x="1531" y="-547"/>
			<point x="1584" y="-584"/>
			<point x="1635" y="-607" type="curve" smooth="yes"/>
			<point x="1664" y="-620"/>
			<point x="1706" y="-628"/>
			<point x="1749" y="-628" type="curve" smooth="yes"/>
			<point x="1815" y="-628"/>
			<point x="1885" y="-608"/>
			<point x="1912" y="-553" type="curve" smooth="yes"/>
			<point x="1944" y="-488" type="line"/>
			<point x="1990" y="-476"/>
			<point x="2051" y="-438"/>
			<point x="2080" y="-387" type="curve" smooth="yes"/>
			<point x="2100" y="-352"/>
			<point x="2117" y="-271"/>
			<point x="2124" y="-219" type="curve"/>
			<point x="2243" y="-184"/>
			<point x="2276" y="-55"/>
			<point x="2276" y="41" type="curve" smooth="yes"/>
			<point x="2276" y="73"/>
			<point x="2273" y="102"/>
			<point x="2267" y="122" type="curve"/>
			<point x="2285" y="151"/>
			<point x="2293" y="192"/>
			<point x="2293" y="237" type="curve" smooth="yes"/>
			<point x="2293" y="311"/>
			<point x="2272" y="394"/>
			<point x="2241" y="440" type="curve" smooth="yes"/>
			<point x="2233" y="452"/>
			<point x="2227" y="462"/>
			<point x="2224" y="471" type="curve" smooth="yes"/>
			<point x="2166" y="656"/>
			<point x="2009" y="735"/>
			<point x="1806" y="764" type="curve" smooth="yes"/>
			<point x="1785" y="767"/>
			<point x="1762" y="774"/>
			<point x="1730" y="778" type="curve"/>
			<point x="1688" y="893"/>
			<point x="1689" y="946"/>
			<point x="1706" y="1073" type="curve" smooth="yes"/>
			<point x="1712" y="1118"/>
			<point x="1734" y="1176"/>
			<point x="1734" y="1211" type="curve" smooth="yes"/>
			<point x="1734" y="1365"/>
			<point x="1734" y="1499"/>
			<point x="1693" y="1570" type="curve" smooth="yes"/>
			<point x="1646" y="1649"/>
			<point x="1558" y="1720"/>
			<point x="1470" y="1720" type="curve" smooth="yes"/>
			<point x="1316" y="1720"/>
			<point x="1385" y="1544"/>
			<point x="1287" y="1365" type="curve" smooth="yes"/>
			<point x="1272" y="1337"/>
			<point x="1264" y="1302"/>
			<point x="1257" y="1270" type="curve" smooth="yes"/>
			<point x="1245" y="1216"/>
			<point x="1237" y="1176"/>
			<point x="1233" y="1142" type="curve" smooth="yes"/>
			<point x="1208" y="921"/>
			<point x="978" y="526"/>
			<point x="763" y="506" type="curve" smooth="yes"/>
			<point x="640" y="495"/>
			<point x="388" y="413"/>
			<point x="206" y="369" type="curve" smooth="yes"/>
			<point x="171" y="360"/>
			<point x="156" y="311"/>
			<point x="156" y="260" type="curve" smooth="yes"/>
			<point x="156" y="198"/>
			<point x="177" y="133"/>
			<point x="207" y="133" type="curve" smooth="yes"/>
			<point x="278" y="133"/>
			<point x="620" y="179"/>
			<point x="714" y="220" type="curve"/>
			<point x="720" y="141"/>
			<point x="767" y="74"/>
			<point x="815" y="29" type="curve"/>
			<point x="797" y="-5"/>
			<point x="787" y="-65"/>
			<point x="787" y="-124" type="curve" smooth="yes"/>
			<point x="787" y="-134"/>
			<point x="788" y="-148"/>
			<point x="790" y="-164" type="curve"/>
			<point x="599" y="-199"/>
			<point x="222" y="-210"/>
			<point x="211" y="-210" type="curve" smooth="yes"/>
			<point x="177" y="-210"/>
			<point x="150" y="-243"/>
		</contour>
		<contour>
			<point x="1405" y="26" type="curve"/>
			<point x="1409" y="30"/>
			<point x="1418" y="37"/>
			<point x="1423" y="40" type="curve"/>
			<point x="1496" y="-10" type="line"/>
			<point x="1586" y="-182"/>
			<point x="1765" y="-203"/>
			<point x="1981" y="-225" type="curve"/>
			<point x="1978" y="-261"/>
			<point x="1975" y="-267"/>
			<point x="1968" y="-280" type="curve" smooth="yes"/>
			<point x="1954" y="-304"/>
			<point x="1912" y="-312"/>
			<point x="1877" y="-312" type="curve" smooth="yes"/>
			<point x="1792" y="-312"/>
			<point x="1700" y="-255"/>
			<point x="1619" y="-204" type="curve" smooth="yes"/>
			<point x="1574" y="-175"/>
			<point x="1440" y="-48"/>
		</contour>
		<contour>
			<point x="1600" y="111" type="curve"/>
			<point x="1634" y="100" type="line"/>
			<point x="1679" y="71"/>
			<point x="1696" y="65"/>
			<point x="1771" y="40" type="curve" smooth="yes"/>
			<point x="1789" y="34"/>
			<point x="1822" y="31"/>
			<point x="1861" y="31" type="curve" smooth="yes"/>
			<point x="1958" y="31"/>
			<point x="2095" y="47"/>
			<point x="2166" y="61" type="curve"/>
			<point x="2141" y="-2" type="line"/>
			<point x="2113" y="-34"/>
			<point x="2074" y="-41"/>
			<point x="2037" y="-41" type="curve" smooth="yes"/>
			<point x="1968" y="-41"/>
			<point x="1738" y="-6"/>
			<point x="1682" y="18" type="curve" smooth="yes"/>
			<point x="1651" y="32"/>
			<point x="1618" y="76"/>
			<point x="1612" y="90" type="curve" smooth="yes"/>
			<point x="1609" y="97"/>
			<point x="1605" y="104"/>
		</contour>
	</outline>
</glyph>
<glyph name="two.osf" format="2">
	<advance width="1130"/>
	<outline>
		<contour>
			<point x="245" y="0" type="curve" smooth="yes"/>
			<point x="934" y="0" type="line" smooth="yes"/>
			<point x="977" y="0"/>
			<point x="990" y="18"/>
			<point x="990" y="42" type="curve" smooth="yes"/>
			<point x="990" y="62"/>
			<point x="976" y="78"/>
			<point x="944" y="78" type="curve" smooth="yes"/>
			<point x="705" y="78"/>
			<point x="466" y="78"/>
			<point x="227" y="74" type="curve"/>
			<point x="222" y="53" type="line"/>
			<point x="816" y="397"/>
			<point x="941" y="555"/>
			<point x="941" y="774" type="curve" smooth="yes"/>
			<point x="941" y="959"/>
			<point x="804" y="1087"/>
			<point x="621" y="1087" type="curve" smooth="yes"/>
			<point x="465" y="1087"/>
			<point x="343" y="1029"/>
			<point x="221" y="912" type="curve" smooth="yes"/>
			<point x="200" y="891"/>
			<point x="191" y="875"/>
			<point x="191" y="861" type="curve" smooth="yes"/>
			<point x="191" y="844"/>
			<point x="207" y="826"/>
			<point x="230" y="826" type="curve" smooth="yes"/>
			<point x="243" y="826"/>
			<point x="250" y="832"/>
			<point x="281" y="860" type="curve" smooth="yes"/>
			<point x="384" y="955"/>
			<point x="487" y="1007"/>
			<point x="611" y="1007" type="curve" smooth="yes"/>
			<point x="752" y="1007"/>
			<point x="856" y="918"/>
			<point x="856" y="764" type="curve" smooth="yes"/>
			<point x="856" y="598"/>
			<point x="755" y="458"/>
			<point x="233" y="140" type="curve" smooth="yes"/>
			<point x="190" y="114"/>
			<point x="175" y="91"/>
			<point x="175" y="64" type="curve" smooth="yes"/>
			<point x="175" y="25"/>
			<point x="200" y="0"/>
		</contour>
	</outline>
</glyph>
<glyph name="whiteLeftBackhandIndex.VAR" format="2">
	<advance width="5489"/>
	<outline>
		<contour>
			<point x="3467" y="-551" type="curve" smooth="yes"/>
			<point x="4415" y="-368" type="line"/>
			<point x="5153" y="-412" type="line" smooth="yes"/>
			<point x="5179" y="-414"/>
			<point x="5209" y="-416"/>
			<point x="5216" y="-416" type="curve" smooth="yes"/>
			<point x="5232" y="-415"/>
			<point x="5240" y="-402"/>
			<point x="5240" y="-385" type="curve" smooth="yes"/>
			<point x="5240" y="-359"/>
			<point x="5229" y="-348"/>
			<point x="5218" y="-347" type="curve" smooth="yes"/>
			<point x="4411" y="-299" type="line"/>
			<point x="3458" y="-483" type="line" smooth="yes"/>
			<point x="3334" y="-507"/>
			<point x="3235" y="-518"/>
			<point x="3154" y="-518" type="curve" smooth="yes"/>
			<point x="3040" y="-518"/>
			<point x="2963" y="-501"/>
			<point x="2900" y="-486" type="curve" smooth="yes"/>
			<point x="2860" y="-476"/>
			<point x="2826" y="-470"/>
			<point x="2794" y="-470" type="curve" smooth="yes"/>
			<point x="2779" y="-470"/>
			<point x="2765" y="-472"/>
			<point x="2735" y="-479" type="curve" smooth="yes"/>
			<point x="2704" y="-486"/>
			<point x="2656" y="-495"/>
			<point x="2602" y="-495" type="curve" smooth="yes"/>
			<point x="2431" y="-495"/>
			<point x="2232" y="-441"/>
			<point x="2156" y="-376" type="curve" smooth="yes"/>
			<point x="2124" y="-349"/>
			<point x="2100" y="-320"/>
			<point x="2100" y="-260" type="curve" smooth="yes"/>
			<point x="2100" y="-232"/>
			<point x="2107" y="-189"/>
			<point x="2119" y="-154" type="curve"/>
			<point x="2313" y="-211"/>
			<point x="2584" y="-242"/>
			<point x="2623" y="-242" type="curve" smooth="yes"/>
			<point x="2637" y="-242"/>
			<point x="2651" y="-232"/>
			<point x="2651" y="-218" type="curve" smooth="yes"/>
			<point x="2651" y="-200"/>
			<point x="2641" y="-182"/>
			<point x="2621" y="-180" type="curve" smooth="yes"/>
			<point x="2434" y="-161"/>
			<point x="2316" y="-147"/>
			<point x="2085" y="-81" type="curve" smooth="yes"/>
			<point x="1878" y="-22"/>
			<point x="1848" y="14"/>
			<point x="1848" y="121" type="curve" smooth="yes"/>
			<point x="1848" y="168"/>
			<point x="1856" y="213"/>
			<point x="1869" y="251" type="curve"/>
			<point x="1915" y="243"/>
			<point x="1969" y="238"/>
			<point x="2035" y="233" type="curve" smooth="yes"/>
			<point x="2310" y="212"/>
			<point x="2439" y="184"/>
			<point x="2498" y="170" type="curve" smooth="yes"/>
			<point x="2508" y="168"/>
			<point x="2518" y="166"/>
			<point x="2528" y="166" type="curve" smooth="yes"/>
			<point x="2544" y="166"/>
			<point x="2548" y="175"/>
			<point x="2548" y="188" type="curve" smooth="yes"/>
			<point x="2548" y="206"/>
			<point x="2541" y="224"/>
			<point x="2522" y="229" type="curve" smooth="yes"/>
			<point x="2450" y="247"/>
			<point x="2317" y="275"/>
			<point x="2039" y="295" type="curve" smooth="yes"/>
			<point x="1770" y="314"/>
			<point x="1714" y="351"/>
			<point x="1687" y="432" type="curve" smooth="yes"/>
			<point x="1676" y="465"/>
			<point x="1670" y="495"/>
			<point x="1670" y="524" type="curve" smooth="yes"/>
			<point x="1670" y="572"/>
			<point x="1677" y="602"/>
			<point x="1694" y="651" type="curve"/>
			<point x="1745" y="651" type="line" smooth="yes"/>
			<point x="1877" y="651"/>
			<point x="2031" y="660"/>
			<point x="2095" y="682" type="curve"/>
			<point x="2495" y="652" type="line" smooth="yes"/>
			<point x="2535" y="649"/>
			<point x="2547" y="649"/>
			<point x="2551" y="649" type="curve" smooth="yes"/>
			<point x="2569" y="649"/>
			<point x="2571" y="665"/>
			<point x="2571" y="677" type="curve" smooth="yes"/>
			<point x="2571" y="695"/>
			<point x="2562" y="712"/>
			<point x="2549" y="713" type="curve" smooth="yes"/>
			<point x="2087" y="743" type="line"/>
			<point x="2038" y="720"/>
			<point x="1787" y="712"/>
			<point x="1605" y="712" type="curve" smooth="yes"/>
			<point x="1472" y="712"/>
			<point x="1342" y="723"/>
			<point x="1227" y="743" type="curve" smooth="yes"/>
			<point x="1076" y="769"/>
			<point x="935" y="774"/>
			<point x="809" y="774" type="curve" smooth="yes"/>
			<point x="631" y="774"/>
			<point x="539" y="770"/>
			<point x="457" y="766" type="curve"/>
			<point x="528" y="776"/>
			<point x="576" y="787"/>
			<point x="599" y="798" type="curve" smooth="yes"/>
			<point x="636" y="816"/>
			<point x="649" y="842"/>
			<point x="649" y="910" type="curve" smooth="yes"/>
			<point x="649" y="1007"/>
			<point x="610" y="1039"/>
			<point x="519" y="1058" type="curve"/>
			<point x="604" y="1058"/>
			<point x="673" y="1056"/>
			<point x="740" y="1053" type="curve" smooth="yes"/>
			<point x="801" y="1050"/>
			<point x="865" y="1048"/>
			<point x="931" y="1048" type="curve" smooth="yes"/>
			<point x="1012" y="1048"/>
			<point x="1065" y="1049"/>
			<point x="1113" y="1055" type="curve" smooth="yes"/>
			<point x="1158" y="1061"/>
			<point x="1245" y="1070"/>
			<point x="1427" y="1082" type="curve" smooth="yes"/>
			<point x="1696" y="1100"/>
			<point x="1851" y="1106"/>
			<point x="1929" y="1109" type="curve" smooth="yes"/>
			<point x="2109" y="1116"/>
			<point x="2432" y="1140"/>
			<point x="2482" y="1149" type="curve" smooth="yes"/>
			<point x="3095" y="1256" type="line" smooth="yes"/>
			<point x="3109" y="1258"/>
			<point x="3117" y="1267"/>
			<point x="3117" y="1284" type="curve" smooth="yes"/>
			<point x="3117" y="1304"/>
			<point x="3106" y="1316"/>
			<point x="3093" y="1316" type="curve" smooth="yes"/>
			<point x="3088" y="1316"/>
			<point x="3076" y="1314"/>
			<point x="3058" y="1311" type="curve" smooth="yes"/>
			<point x="2474" y="1209" type="line" smooth="yes"/>
			<point x="2405" y="1197"/>
			<point x="2060" y="1168"/>
			<point x="1914" y="1168" type="curve"/>
			<point x="1858" y="1217"/>
			<point x="1811" y="1284"/>
			<point x="1811" y="1338" type="curve" smooth="yes"/>
			<point x="1811" y="1369"/>
			<point x="1826" y="1394"/>
			<point x="1854" y="1407" type="curve"/>
			<point x="1865" y="1364"/>
			<point x="1894" y="1311"/>
			<point x="1916" y="1300" type="curve" smooth="yes"/>
			<point x="1940" y="1288"/>
			<point x="1997" y="1280"/>
			<point x="2098" y="1280" type="curve" smooth="yes"/>
			<point x="2167" y="1280"/>
			<point x="2226" y="1342"/>
			<point x="2226" y="1400" type="curve" smooth="yes"/>
			<point x="2226" y="1408"/>
			<point x="2225" y="1417"/>
			<point x="2223" y="1425" type="curve"/>
			<point x="2357" y="1525"/>
			<point x="2494" y="1583"/>
			<point x="2574" y="1583" type="curve" smooth="yes"/>
			<point x="2621" y="1583"/>
			<point x="2675" y="1570"/>
			<point x="2752" y="1548" type="curve" smooth="yes"/>
			<point x="2875" y="1513"/>
			<point x="3061" y="1462"/>
			<point x="3386" y="1423" type="curve" smooth="yes"/>
			<point x="3604" y="1397"/>
			<point x="3876" y="1301"/>
			<point x="4303" y="1083" type="curve" smooth="yes"/>
			<point x="4522" y="971"/>
			<point x="4604" y="944"/>
			<point x="4667" y="938" type="curve" smooth="yes"/>
			<point x="4703" y="935"/>
			<point x="4763" y="934"/>
			<point x="4830" y="934" type="curve" smooth="yes"/>
			<point x="4969" y="934"/>
			<point x="5149" y="941"/>
			<point x="5245" y="948" type="curve" smooth="yes"/>
			<point x="5280" y="951"/>
			<point x="5289" y="961"/>
			<point x="5289" y="985" type="curve" smooth="yes"/>
			<point x="5289" y="1001"/>
			<point x="5278" y="1016"/>
			<point x="5256" y="1016" type="curve" smooth="yes"/>
			<point x="5232" y="1016"/>
			<point x="5182" y="1012"/>
			<point x="5133" y="1008" type="curve" smooth="yes"/>
			<point x="5076" y="1003"/>
			<point x="4948" y="997"/>
			<point x="4890" y="997" type="curve" smooth="yes"/>
			<point x="4831" y="997"/>
			<point x="4723" y="998"/>
			<point x="4677" y="1002" type="curve" smooth="yes"/>
			<point x="4612" y="1007"/>
			<point x="4506" y="1052"/>
			<point x="4325" y="1144" type="curve" smooth="yes"/>
			<point x="3893" y="1363"/>
			<point x="3629" y="1449"/>
			<point x="3391" y="1481" type="curve" smooth="yes"/>
			<point x="3091" y="1521"/>
			<point x="2908" y="1565"/>
			<point x="2780" y="1601" type="curve" smooth="yes"/>
			<point x="2692" y="1626"/>
			<point x="2629" y="1643"/>
			<point x="2572" y="1643" type="curve" smooth="yes"/>
			<point x="2490" y="1643"/>
			<point x="2339" y="1581"/>
			<point x="2194" y="1470" type="curve"/>
			<point x="1887" y="1470" type="line" smooth="yes"/>
			<point x="1814" y="1470"/>
			<point x="1753" y="1402"/>
			<point x="1753" y="1342" type="curve" smooth="yes"/>
			<point x="1753" y="1274"/>
			<point x="1800" y="1207"/>
			<point x="1846" y="1163" type="curve"/>
			<point x="1780" y="1163"/>
			<point x="1621" y="1154"/>
			<point x="1426" y="1141" type="curve" smooth="yes"/>
			<point x="1260" y="1130"/>
			<point x="1165" y="1121"/>
			<point x="1105" y="1115" type="curve" smooth="yes"/>
			<point x="1038" y="1108"/>
			<point x="991" y="1106"/>
			<point x="943" y="1106" type="curve" smooth="yes"/>
			<point x="881" y="1106"/>
			<point x="819" y="1107"/>
			<point x="749" y="1110" type="curve" smooth="yes"/>
			<point x="648" y="1114"/>
			<point x="516" y="1116"/>
			<point x="406" y="1116" type="curve" smooth="yes"/>
			<point x="265" y="1116"/>
			<point x="200" y="1054"/>
			<point x="200" y="898" type="curve" smooth="yes"/>
			<point x="200" y="767"/>
			<point x="270" y="713"/>
			<point x="465" y="713" type="curve" smooth="yes"/>
			<point x="813" y="713" type="line" smooth="yes"/>
			<point x="946" y="713"/>
			<point x="1081" y="709"/>
			<point x="1219" y="685" type="curve" smooth="yes"/>
			<point x="1334" y="665"/>
			<point x="1472" y="652"/>
			<point x="1633" y="652" type="curve"/>
			<point x="1622" y="621"/>
			<point x="1612" y="577"/>
			<point x="1612" y="527" type="curve" smooth="yes"/>
			<point x="1612" y="490"/>
			<point x="1618" y="449"/>
			<point x="1632" y="407" type="curve" smooth="yes"/>
			<point x="1655" y="337"/>
			<point x="1707" y="291"/>
			<point x="1812" y="262" type="curve"/>
			<point x="1802" y="232"/>
			<point x="1790" y="178"/>
			<point x="1790" y="121" type="curve" smooth="yes"/>
			<point x="1790" y="-34"/>
			<point x="1862" y="-76"/>
			<point x="2065" y="-140" type="curve"/>
			<point x="2051" y="-182"/>
			<point x="2043" y="-225"/>
			<point x="2043" y="-258" type="curve" smooth="yes"/>
			<point x="2043" y="-339"/>
			<point x="2081" y="-396"/>
			<point x="2125" y="-433" type="curve" smooth="yes"/>
			<point x="2209" y="-504"/>
			<point x="2420" y="-562"/>
			<point x="2602" y="-562" type="curve" smooth="yes"/>
			<point x="2660" y="-562"/>
			<point x="2715" y="-550"/>
			<point x="2745" y="-543" type="curve" smooth="yes"/>
			<point x="2771" y="-537"/>
			<point x="2780" y="-537"/>
			<point x="2789" y="-537" type="curve" smooth="yes"/>
			<point x="2814" y="-537"/>
			<point x="2841" y="-543"/>
			<point x="2875" y="-552" type="curve" smooth="yes"/>
			<point x="2935" y="-568"/>
			<point x="3014" y="-589"/>
			<point x="3140" y="-589" type="curve" smooth="yes"/>
			<point x="3225" y="-589"/>
			<point x="3332" y="-577"/>
		</contour>
		<contour>
			<point x="2095" y="1328" type="curve" smooth="yes"/>
			<point x="2027" y="1328"/>
			<point x="1975" y="1332"/>
			<point x="1939" y="1338" type="curve"/>
			<point x="1920" y="1364"/>
			<point x="1904" y="1397"/>
			<point x="1899" y="1421" type="curve"/>
			<point x="2178" y="1421" type="line"/>
			<point x="2179" y="1417"/>
			<point x="2180" y="1412"/>
			<point x="2180" y="1404" type="curve" smooth="yes"/>
			<point x="2180" y="1366"/>
			<point x="2142" y="1328"/>
		</contour>
		<contour>
			<point x="369" y="803" type="curve"/>
			<point x="359" y="842"/>
			<point x="354" y="885"/>
			<point x="354" y="922" type="curve" smooth="yes"/>
			<point x="354" y="958"/>
			<point x="361" y="1007"/>
			<point x="368" y="1028" type="curve"/>
			<point x="490" y="1028"/>
			<point x="536" y="1022"/>
			<point x="568" y="999" type="curve" smooth="yes"/>
			<point x="595" y="980"/>
			<point x="599" y="972"/>
			<point x="599" y="912" type="curve" smooth="yes"/>
			<point x="599" y="858"/>
			<point x="594" y="848"/>
			<point x="573" y="838" type="curve" smooth="yes"/>
			<point x="541" y="823"/>
			<point x="467" y="807"/>
		</contour>
		<contour>
			<point x="331" y="1048" type="curve"/>
			<point x="314" y="1015"/>
			<point x="305" y="977"/>
			<point x="305" y="922" type="curve" smooth="yes"/>
			<point x="305" y="871"/>
			<point x="313" y="828"/>
			<point x="328" y="783" type="curve"/>
			<point x="278" y="799"/>
			<point x="260" y="834"/>
			<point x="260" y="898" type="curve" smooth="yes"/>
			<point x="260" y="986"/>
			<point x="281" y="1031"/>
		</contour>
	</outline>
	<note>
u0041
</note>
</glyph>
